M48
;GenerationSoftware,Autodesk,EAGLE,9.5.2*%
;CreationDate,2020-03-25T12:50:56Z*%
FMAT,2
ICI,OFF
METRIC,TZ,000.000
T5C0.400
T4C0.500
T3C0.813
T2C0.900
T1C1.000
%
G90
M71
T1
X58648Y17736
X81148Y24936
X83648Y17736
X76148Y24936
X66148Y24936
X63648Y24936
X61148Y24936
X58648Y24936
X3648Y24936
X56148Y24936
X41148Y24936
X1148Y24936
X53648Y24936
X51148Y24936
X48648Y24936
X46148Y24936
X81148Y17736
X66148Y17736
X63648Y17736
X61148Y17736
X43648Y24936
X56148Y17736
X53648Y17736
X51148Y17736
X48648Y17736
X46148Y17736
X43648Y17736
X41148Y17736
X38648Y17736
X36148Y17736
X33648Y17736
X31148Y17736
X28648Y17736
X26148Y17736
X23648Y17736
X16148Y24936
X23648Y24936
X26148Y24936
X28648Y24936
X31148Y24936
X36148Y24936
X38648Y24936
X83648Y24936
X16148Y17736
X78648Y17736
X21148Y17736
X18648Y17736
X68648Y17736
X13648Y17736
X6148Y17736
X3648Y17736
X1148Y17736
X76148Y17736
X33648Y24936
X21148Y24936
X18648Y24936
X13648Y24936
X68648Y24936
X78648Y24936
X6148Y24936
T2
X17399Y2921
X14859Y2921
T3
X80645Y7239
X50038Y21844
X44958Y21844
X47498Y21717
X39878Y21844
X52578Y21717
X80645Y12319
X80518Y14859
X80518Y9779
X42418Y21717
T4
X8382Y16764
X5715Y19431
X78994Y2159
X78994Y4064
X75946Y2286
X6223Y22479
X3048Y19431
X3556Y22479
X8763Y25527
X5842Y6096
X5842Y5080
X8382Y10795
X8382Y9779
T5
X33909Y21041
X14986Y15621
X20574Y8001
X33147Y9017
X16383Y13081
X11176Y17653
X8255Y18161
X29845Y8001
X11684Y8001
X26416Y8001
X24384Y8001
X34290Y11430
X16383Y9906
X34290Y12700
X16383Y11049
X44450Y11430
X42799Y9652
X45466Y8814
X46228Y12090
X50038Y11938
X53975Y13335
X32512Y17526
X38862Y12306
X39624Y14986
X43942Y13970
X38735Y8928
X37338Y6706
X36322Y7049
X57023Y14478
X75184Y19812
X55245Y20574
X72898Y22733
X38608Y15621
X42926Y13970
X12446Y15748
X9906Y14732
X20320Y4064
X30734Y4064
X8636Y23622
X25400Y23622
X62992Y2794
X64770Y10287
X63881Y11049
X12065Y2540
X11430Y5080
X46228Y5842
X54102Y10706
X38354Y7506
X46736Y19304
X72644Y17653
X62230Y23368
X56642Y8225
X66802Y12543
X42228Y2540
X35560Y2286
X43561Y2540
X31369Y2286
X20574Y11303
X21082Y9398
X23876Y4572
X25908Y18923
X26670Y14986
X28194Y16637
X37211Y22225
X34290Y9017
X45466Y2540
X47498Y5842
X42291Y7366
X41910Y11049
X57150Y12827
X3810Y5715
X4826Y14351
X7112Y10795
X29845Y4572
X42799Y12446
X46482Y11049
X41148Y15367
X5842Y2540
X7112Y13843
X21082Y1270
X30226Y2032
X63881Y14859
X46990Y13843
X50419Y7112
X40386Y4445
X49149Y14224
X49149Y10287
X49657Y19304
X77724Y21463
X26416Y11303
X49276Y635
X53086Y16764
X40894Y19685
X52324Y25781
X47371Y25654
X29972Y10160
X75946Y6350
X53467Y8382
X61341Y10922
X67183Y10668
X55245Y13335
X75438Y15240
X53594Y6096
X57404Y2540
X635Y21336
X79502Y11049
X79121Y8001
X64897Y18161
X62357Y25527
X52324Y14986
X67437Y2286
X33147Y4953
X10185Y22885
X15265Y22885
X35941Y5715
X70739Y9398
X31496Y7747
X20828Y14605
X16383Y8001
X26949Y22885
X30759Y22885
X76200Y22733
X54229Y19304
X59944Y17526
X51816Y635
X30353Y21041
X28067Y21041
M30