%
M48
M72
T01C0.0157
T02C0.0197
T03C0.0320
T04C0.0354
T05C0.0394
%
T01
X5155Y6500
X4155Y6100
X5005Y1300
X4755Y2300
X8355Y4750
X8555Y4000
X9655Y2100
X10455Y7750
X10755Y6200
X11355Y6850
X14905Y9050
X13755Y3850
X18155Y1300
X18955Y2600
X16905Y3200
X16755Y4650
X22755Y5350
X1755Y2550
X2155Y5950
X3055Y4550
X12005Y2100
X17105Y5200
X18555Y4650
X16455Y6350
X13055Y7200
X2555Y1300
X3055Y5750
X8555Y800
X12155Y1100
X25405Y6150
X18755Y5750
X20105Y3100
X16155Y2050
X19605Y5900
X19605Y4350
X19805Y7900
X30855Y8750
X10655Y4750
X19655Y550
X21155Y6900
X16355Y8050
X20855Y10450
X18905Y10400
X12055Y4300
X30155Y2800
X21305Y3600
X24405Y4600
X26705Y4500
X29955Y6300
X21355Y2700
X22855Y1300
X505Y8700
X31555Y4650
X31405Y3450
X25805Y7450
X24805Y10350
X20855Y6200
X26805Y1200
X13305Y2250
X4265Y9310
X6265Y9310
X14405Y2550
X28105Y4000
X12655Y3350
X8455Y6050
X6705Y3450
X10865Y9310
X12365Y9310
X30255Y9250
X21605Y7900
X23855Y7200
X20655Y550
X12205Y8584
X11305Y8584
X13605Y8584
X6155Y6450
X8355Y3450
X13305Y3850
X6705Y5450
X4655Y7250
X3505Y7450
X12005Y3450
X4855Y3450
X10655Y3450
X9855Y3450
X13755Y4800
X6705Y4200
X13755Y5300
X6705Y4650
X17755Y4800
X17105Y4100
X18155Y3770
X18455Y5060
X19955Y5000
X21505Y5550
X22005Y5550
X15555Y5145
X15855Y6200
X17555Y5800
X15505Y3815
X14955Y2940
X14555Y3075
X22705Y6000
X29855Y8100
X22005Y8400
X28955Y9250
X15455Y6450
X17155Y5800
X8255Y1900
X12355Y1900
X3655Y9600
X10255Y9600
X25055Y1400
X25755Y4350
X25405Y4650
X18455Y2600
X21555Y4515
X15355Y3255
X18655Y7900
X28855Y7250
X24755Y9500
X22555Y3538
X26555Y5238
X16880Y1300
X14255Y1200
X17405Y1300
X12605Y1200
T02
X30155Y1200
X31355Y1900
X1655Y9150
X1455Y7950
X2705Y9150
X2505Y7950
X31355Y1150
X3555Y6900
X3705Y10350
X3555Y4150
X3555Y4550
X2555Y2300
X2555Y2700
T03
X19955Y8900
X17955Y8900
X16955Y8850
X18955Y8850
X15955Y8900
X20955Y8850
X32005Y5150
X31955Y6150
X31955Y4150
X32005Y3150
T04
X7105Y1450
X6105Y1450
T05
X8581Y7283
X7597Y7283
X27282Y7283
X5628Y7283
X2675Y7283
X1691Y7283
X707Y7283
X30235Y7283
X31219Y7283
X13502Y10117
X8581Y10117
X7597Y10117
X5628Y10117
X27282Y10117
X31219Y10117
X2675Y10117
X1691Y10117
X707Y10117
X32203Y7283
X26298Y7283
X25313Y7283
X24329Y7283
X23345Y7283
X22361Y7283
X21376Y7283
X20392Y7283
X19408Y7283
X18424Y7283
X17439Y7283
X16455Y7283
X15471Y7283
X14486Y7283
X13502Y7283
X12518Y7283
X11534Y7283
X10549Y7283
X9565Y7283
X6612Y10117
X9565Y10117
X10549Y10117
X11534Y10117
X12518Y10117
X14486Y10117
X15471Y10117
X16455Y10117
X17439Y10117
X18424Y10117
X19408Y10117
X20392Y10117
X21376Y10117
X22361Y10117
X23345Y10117
X24329Y10117
X25313Y10117
X26298Y10117
X30235Y10117
X32203Y10117
X33187Y10117
X33187Y7283
X6612Y7283
M30
