G75*
%MOIN*%
%OFA0B0*%
%FSLAX25Y25*%
%IPPOS*%
%LPD*%
%AMOC8*
5,1,8,0,0,1.08239X$1,22.5*
%
%ADD10C,0.00000*%
D10*
X0013050Y0005500D02*
X0015550Y0003000D01*
X0330050Y0003000D01*
X0332550Y0005500D01*
X0332550Y0026000D01*
X0338050Y0031500D01*
X0338050Y0104500D01*
X0335550Y0107000D01*
X0005050Y0107000D01*
X0002550Y0104500D01*
X0002550Y0069500D01*
X0005050Y0067000D01*
X0010550Y0067000D01*
X0013050Y0064500D01*
X0013050Y0005500D01*
X0064156Y0072827D02*
X0064158Y0072915D01*
X0064164Y0073003D01*
X0064174Y0073091D01*
X0064188Y0073179D01*
X0064205Y0073265D01*
X0064227Y0073351D01*
X0064252Y0073435D01*
X0064282Y0073519D01*
X0064314Y0073601D01*
X0064351Y0073681D01*
X0064391Y0073760D01*
X0064435Y0073837D01*
X0064482Y0073912D01*
X0064532Y0073984D01*
X0064586Y0074055D01*
X0064642Y0074122D01*
X0064702Y0074188D01*
X0064764Y0074250D01*
X0064830Y0074310D01*
X0064897Y0074366D01*
X0064968Y0074420D01*
X0065040Y0074470D01*
X0065115Y0074517D01*
X0065192Y0074561D01*
X0065271Y0074601D01*
X0065351Y0074638D01*
X0065433Y0074670D01*
X0065517Y0074700D01*
X0065601Y0074725D01*
X0065687Y0074747D01*
X0065773Y0074764D01*
X0065861Y0074778D01*
X0065949Y0074788D01*
X0066037Y0074794D01*
X0066125Y0074796D01*
X0066213Y0074794D01*
X0066301Y0074788D01*
X0066389Y0074778D01*
X0066477Y0074764D01*
X0066563Y0074747D01*
X0066649Y0074725D01*
X0066733Y0074700D01*
X0066817Y0074670D01*
X0066899Y0074638D01*
X0066979Y0074601D01*
X0067058Y0074561D01*
X0067135Y0074517D01*
X0067210Y0074470D01*
X0067282Y0074420D01*
X0067353Y0074366D01*
X0067420Y0074310D01*
X0067486Y0074250D01*
X0067548Y0074188D01*
X0067608Y0074122D01*
X0067664Y0074055D01*
X0067718Y0073984D01*
X0067768Y0073912D01*
X0067815Y0073837D01*
X0067859Y0073760D01*
X0067899Y0073681D01*
X0067936Y0073601D01*
X0067968Y0073519D01*
X0067998Y0073435D01*
X0068023Y0073351D01*
X0068045Y0073265D01*
X0068062Y0073179D01*
X0068076Y0073091D01*
X0068086Y0073003D01*
X0068092Y0072915D01*
X0068094Y0072827D01*
X0068092Y0072739D01*
X0068086Y0072651D01*
X0068076Y0072563D01*
X0068062Y0072475D01*
X0068045Y0072389D01*
X0068023Y0072303D01*
X0067998Y0072219D01*
X0067968Y0072135D01*
X0067936Y0072053D01*
X0067899Y0071973D01*
X0067859Y0071894D01*
X0067815Y0071817D01*
X0067768Y0071742D01*
X0067718Y0071670D01*
X0067664Y0071599D01*
X0067608Y0071532D01*
X0067548Y0071466D01*
X0067486Y0071404D01*
X0067420Y0071344D01*
X0067353Y0071288D01*
X0067282Y0071234D01*
X0067210Y0071184D01*
X0067135Y0071137D01*
X0067058Y0071093D01*
X0066979Y0071053D01*
X0066899Y0071016D01*
X0066817Y0070984D01*
X0066733Y0070954D01*
X0066649Y0070929D01*
X0066563Y0070907D01*
X0066477Y0070890D01*
X0066389Y0070876D01*
X0066301Y0070866D01*
X0066213Y0070860D01*
X0066125Y0070858D01*
X0066037Y0070860D01*
X0065949Y0070866D01*
X0065861Y0070876D01*
X0065773Y0070890D01*
X0065687Y0070907D01*
X0065601Y0070929D01*
X0065517Y0070954D01*
X0065433Y0070984D01*
X0065351Y0071016D01*
X0065271Y0071053D01*
X0065192Y0071093D01*
X0065115Y0071137D01*
X0065040Y0071184D01*
X0064968Y0071234D01*
X0064897Y0071288D01*
X0064830Y0071344D01*
X0064764Y0071404D01*
X0064702Y0071466D01*
X0064642Y0071532D01*
X0064586Y0071599D01*
X0064532Y0071670D01*
X0064482Y0071742D01*
X0064435Y0071817D01*
X0064391Y0071894D01*
X0064351Y0071973D01*
X0064314Y0072053D01*
X0064282Y0072135D01*
X0064252Y0072219D01*
X0064227Y0072303D01*
X0064205Y0072389D01*
X0064188Y0072475D01*
X0064174Y0072563D01*
X0064164Y0072651D01*
X0064158Y0072739D01*
X0064156Y0072827D01*
X0093683Y0072827D02*
X0093685Y0072915D01*
X0093691Y0073003D01*
X0093701Y0073091D01*
X0093715Y0073179D01*
X0093732Y0073265D01*
X0093754Y0073351D01*
X0093779Y0073435D01*
X0093809Y0073519D01*
X0093841Y0073601D01*
X0093878Y0073681D01*
X0093918Y0073760D01*
X0093962Y0073837D01*
X0094009Y0073912D01*
X0094059Y0073984D01*
X0094113Y0074055D01*
X0094169Y0074122D01*
X0094229Y0074188D01*
X0094291Y0074250D01*
X0094357Y0074310D01*
X0094424Y0074366D01*
X0094495Y0074420D01*
X0094567Y0074470D01*
X0094642Y0074517D01*
X0094719Y0074561D01*
X0094798Y0074601D01*
X0094878Y0074638D01*
X0094960Y0074670D01*
X0095044Y0074700D01*
X0095128Y0074725D01*
X0095214Y0074747D01*
X0095300Y0074764D01*
X0095388Y0074778D01*
X0095476Y0074788D01*
X0095564Y0074794D01*
X0095652Y0074796D01*
X0095740Y0074794D01*
X0095828Y0074788D01*
X0095916Y0074778D01*
X0096004Y0074764D01*
X0096090Y0074747D01*
X0096176Y0074725D01*
X0096260Y0074700D01*
X0096344Y0074670D01*
X0096426Y0074638D01*
X0096506Y0074601D01*
X0096585Y0074561D01*
X0096662Y0074517D01*
X0096737Y0074470D01*
X0096809Y0074420D01*
X0096880Y0074366D01*
X0096947Y0074310D01*
X0097013Y0074250D01*
X0097075Y0074188D01*
X0097135Y0074122D01*
X0097191Y0074055D01*
X0097245Y0073984D01*
X0097295Y0073912D01*
X0097342Y0073837D01*
X0097386Y0073760D01*
X0097426Y0073681D01*
X0097463Y0073601D01*
X0097495Y0073519D01*
X0097525Y0073435D01*
X0097550Y0073351D01*
X0097572Y0073265D01*
X0097589Y0073179D01*
X0097603Y0073091D01*
X0097613Y0073003D01*
X0097619Y0072915D01*
X0097621Y0072827D01*
X0097619Y0072739D01*
X0097613Y0072651D01*
X0097603Y0072563D01*
X0097589Y0072475D01*
X0097572Y0072389D01*
X0097550Y0072303D01*
X0097525Y0072219D01*
X0097495Y0072135D01*
X0097463Y0072053D01*
X0097426Y0071973D01*
X0097386Y0071894D01*
X0097342Y0071817D01*
X0097295Y0071742D01*
X0097245Y0071670D01*
X0097191Y0071599D01*
X0097135Y0071532D01*
X0097075Y0071466D01*
X0097013Y0071404D01*
X0096947Y0071344D01*
X0096880Y0071288D01*
X0096809Y0071234D01*
X0096737Y0071184D01*
X0096662Y0071137D01*
X0096585Y0071093D01*
X0096506Y0071053D01*
X0096426Y0071016D01*
X0096344Y0070984D01*
X0096260Y0070954D01*
X0096176Y0070929D01*
X0096090Y0070907D01*
X0096004Y0070890D01*
X0095916Y0070876D01*
X0095828Y0070866D01*
X0095740Y0070860D01*
X0095652Y0070858D01*
X0095564Y0070860D01*
X0095476Y0070866D01*
X0095388Y0070876D01*
X0095300Y0070890D01*
X0095214Y0070907D01*
X0095128Y0070929D01*
X0095044Y0070954D01*
X0094960Y0070984D01*
X0094878Y0071016D01*
X0094798Y0071053D01*
X0094719Y0071093D01*
X0094642Y0071137D01*
X0094567Y0071184D01*
X0094495Y0071234D01*
X0094424Y0071288D01*
X0094357Y0071344D01*
X0094291Y0071404D01*
X0094229Y0071466D01*
X0094169Y0071532D01*
X0094113Y0071599D01*
X0094059Y0071670D01*
X0094009Y0071742D01*
X0093962Y0071817D01*
X0093918Y0071894D01*
X0093878Y0071973D01*
X0093841Y0072053D01*
X0093809Y0072135D01*
X0093779Y0072219D01*
X0093754Y0072303D01*
X0093732Y0072389D01*
X0093715Y0072475D01*
X0093701Y0072563D01*
X0093691Y0072651D01*
X0093685Y0072739D01*
X0093683Y0072827D01*
X0103526Y0072827D02*
X0103528Y0072915D01*
X0103534Y0073003D01*
X0103544Y0073091D01*
X0103558Y0073179D01*
X0103575Y0073265D01*
X0103597Y0073351D01*
X0103622Y0073435D01*
X0103652Y0073519D01*
X0103684Y0073601D01*
X0103721Y0073681D01*
X0103761Y0073760D01*
X0103805Y0073837D01*
X0103852Y0073912D01*
X0103902Y0073984D01*
X0103956Y0074055D01*
X0104012Y0074122D01*
X0104072Y0074188D01*
X0104134Y0074250D01*
X0104200Y0074310D01*
X0104267Y0074366D01*
X0104338Y0074420D01*
X0104410Y0074470D01*
X0104485Y0074517D01*
X0104562Y0074561D01*
X0104641Y0074601D01*
X0104721Y0074638D01*
X0104803Y0074670D01*
X0104887Y0074700D01*
X0104971Y0074725D01*
X0105057Y0074747D01*
X0105143Y0074764D01*
X0105231Y0074778D01*
X0105319Y0074788D01*
X0105407Y0074794D01*
X0105495Y0074796D01*
X0105583Y0074794D01*
X0105671Y0074788D01*
X0105759Y0074778D01*
X0105847Y0074764D01*
X0105933Y0074747D01*
X0106019Y0074725D01*
X0106103Y0074700D01*
X0106187Y0074670D01*
X0106269Y0074638D01*
X0106349Y0074601D01*
X0106428Y0074561D01*
X0106505Y0074517D01*
X0106580Y0074470D01*
X0106652Y0074420D01*
X0106723Y0074366D01*
X0106790Y0074310D01*
X0106856Y0074250D01*
X0106918Y0074188D01*
X0106978Y0074122D01*
X0107034Y0074055D01*
X0107088Y0073984D01*
X0107138Y0073912D01*
X0107185Y0073837D01*
X0107229Y0073760D01*
X0107269Y0073681D01*
X0107306Y0073601D01*
X0107338Y0073519D01*
X0107368Y0073435D01*
X0107393Y0073351D01*
X0107415Y0073265D01*
X0107432Y0073179D01*
X0107446Y0073091D01*
X0107456Y0073003D01*
X0107462Y0072915D01*
X0107464Y0072827D01*
X0107462Y0072739D01*
X0107456Y0072651D01*
X0107446Y0072563D01*
X0107432Y0072475D01*
X0107415Y0072389D01*
X0107393Y0072303D01*
X0107368Y0072219D01*
X0107338Y0072135D01*
X0107306Y0072053D01*
X0107269Y0071973D01*
X0107229Y0071894D01*
X0107185Y0071817D01*
X0107138Y0071742D01*
X0107088Y0071670D01*
X0107034Y0071599D01*
X0106978Y0071532D01*
X0106918Y0071466D01*
X0106856Y0071404D01*
X0106790Y0071344D01*
X0106723Y0071288D01*
X0106652Y0071234D01*
X0106580Y0071184D01*
X0106505Y0071137D01*
X0106428Y0071093D01*
X0106349Y0071053D01*
X0106269Y0071016D01*
X0106187Y0070984D01*
X0106103Y0070954D01*
X0106019Y0070929D01*
X0105933Y0070907D01*
X0105847Y0070890D01*
X0105759Y0070876D01*
X0105671Y0070866D01*
X0105583Y0070860D01*
X0105495Y0070858D01*
X0105407Y0070860D01*
X0105319Y0070866D01*
X0105231Y0070876D01*
X0105143Y0070890D01*
X0105057Y0070907D01*
X0104971Y0070929D01*
X0104887Y0070954D01*
X0104803Y0070984D01*
X0104721Y0071016D01*
X0104641Y0071053D01*
X0104562Y0071093D01*
X0104485Y0071137D01*
X0104410Y0071184D01*
X0104338Y0071234D01*
X0104267Y0071288D01*
X0104200Y0071344D01*
X0104134Y0071404D01*
X0104072Y0071466D01*
X0104012Y0071532D01*
X0103956Y0071599D01*
X0103902Y0071670D01*
X0103852Y0071742D01*
X0103805Y0071817D01*
X0103761Y0071894D01*
X0103721Y0071973D01*
X0103684Y0072053D01*
X0103652Y0072135D01*
X0103622Y0072219D01*
X0103597Y0072303D01*
X0103575Y0072389D01*
X0103558Y0072475D01*
X0103544Y0072563D01*
X0103534Y0072651D01*
X0103528Y0072739D01*
X0103526Y0072827D01*
X0113368Y0072827D02*
X0113370Y0072915D01*
X0113376Y0073003D01*
X0113386Y0073091D01*
X0113400Y0073179D01*
X0113417Y0073265D01*
X0113439Y0073351D01*
X0113464Y0073435D01*
X0113494Y0073519D01*
X0113526Y0073601D01*
X0113563Y0073681D01*
X0113603Y0073760D01*
X0113647Y0073837D01*
X0113694Y0073912D01*
X0113744Y0073984D01*
X0113798Y0074055D01*
X0113854Y0074122D01*
X0113914Y0074188D01*
X0113976Y0074250D01*
X0114042Y0074310D01*
X0114109Y0074366D01*
X0114180Y0074420D01*
X0114252Y0074470D01*
X0114327Y0074517D01*
X0114404Y0074561D01*
X0114483Y0074601D01*
X0114563Y0074638D01*
X0114645Y0074670D01*
X0114729Y0074700D01*
X0114813Y0074725D01*
X0114899Y0074747D01*
X0114985Y0074764D01*
X0115073Y0074778D01*
X0115161Y0074788D01*
X0115249Y0074794D01*
X0115337Y0074796D01*
X0115425Y0074794D01*
X0115513Y0074788D01*
X0115601Y0074778D01*
X0115689Y0074764D01*
X0115775Y0074747D01*
X0115861Y0074725D01*
X0115945Y0074700D01*
X0116029Y0074670D01*
X0116111Y0074638D01*
X0116191Y0074601D01*
X0116270Y0074561D01*
X0116347Y0074517D01*
X0116422Y0074470D01*
X0116494Y0074420D01*
X0116565Y0074366D01*
X0116632Y0074310D01*
X0116698Y0074250D01*
X0116760Y0074188D01*
X0116820Y0074122D01*
X0116876Y0074055D01*
X0116930Y0073984D01*
X0116980Y0073912D01*
X0117027Y0073837D01*
X0117071Y0073760D01*
X0117111Y0073681D01*
X0117148Y0073601D01*
X0117180Y0073519D01*
X0117210Y0073435D01*
X0117235Y0073351D01*
X0117257Y0073265D01*
X0117274Y0073179D01*
X0117288Y0073091D01*
X0117298Y0073003D01*
X0117304Y0072915D01*
X0117306Y0072827D01*
X0117304Y0072739D01*
X0117298Y0072651D01*
X0117288Y0072563D01*
X0117274Y0072475D01*
X0117257Y0072389D01*
X0117235Y0072303D01*
X0117210Y0072219D01*
X0117180Y0072135D01*
X0117148Y0072053D01*
X0117111Y0071973D01*
X0117071Y0071894D01*
X0117027Y0071817D01*
X0116980Y0071742D01*
X0116930Y0071670D01*
X0116876Y0071599D01*
X0116820Y0071532D01*
X0116760Y0071466D01*
X0116698Y0071404D01*
X0116632Y0071344D01*
X0116565Y0071288D01*
X0116494Y0071234D01*
X0116422Y0071184D01*
X0116347Y0071137D01*
X0116270Y0071093D01*
X0116191Y0071053D01*
X0116111Y0071016D01*
X0116029Y0070984D01*
X0115945Y0070954D01*
X0115861Y0070929D01*
X0115775Y0070907D01*
X0115689Y0070890D01*
X0115601Y0070876D01*
X0115513Y0070866D01*
X0115425Y0070860D01*
X0115337Y0070858D01*
X0115249Y0070860D01*
X0115161Y0070866D01*
X0115073Y0070876D01*
X0114985Y0070890D01*
X0114899Y0070907D01*
X0114813Y0070929D01*
X0114729Y0070954D01*
X0114645Y0070984D01*
X0114563Y0071016D01*
X0114483Y0071053D01*
X0114404Y0071093D01*
X0114327Y0071137D01*
X0114252Y0071184D01*
X0114180Y0071234D01*
X0114109Y0071288D01*
X0114042Y0071344D01*
X0113976Y0071404D01*
X0113914Y0071466D01*
X0113854Y0071532D01*
X0113798Y0071599D01*
X0113744Y0071670D01*
X0113694Y0071742D01*
X0113647Y0071817D01*
X0113603Y0071894D01*
X0113563Y0071973D01*
X0113526Y0072053D01*
X0113494Y0072135D01*
X0113464Y0072219D01*
X0113439Y0072303D01*
X0113417Y0072389D01*
X0113400Y0072475D01*
X0113386Y0072563D01*
X0113376Y0072651D01*
X0113370Y0072739D01*
X0113368Y0072827D01*
X0123211Y0072827D02*
X0123213Y0072915D01*
X0123219Y0073003D01*
X0123229Y0073091D01*
X0123243Y0073179D01*
X0123260Y0073265D01*
X0123282Y0073351D01*
X0123307Y0073435D01*
X0123337Y0073519D01*
X0123369Y0073601D01*
X0123406Y0073681D01*
X0123446Y0073760D01*
X0123490Y0073837D01*
X0123537Y0073912D01*
X0123587Y0073984D01*
X0123641Y0074055D01*
X0123697Y0074122D01*
X0123757Y0074188D01*
X0123819Y0074250D01*
X0123885Y0074310D01*
X0123952Y0074366D01*
X0124023Y0074420D01*
X0124095Y0074470D01*
X0124170Y0074517D01*
X0124247Y0074561D01*
X0124326Y0074601D01*
X0124406Y0074638D01*
X0124488Y0074670D01*
X0124572Y0074700D01*
X0124656Y0074725D01*
X0124742Y0074747D01*
X0124828Y0074764D01*
X0124916Y0074778D01*
X0125004Y0074788D01*
X0125092Y0074794D01*
X0125180Y0074796D01*
X0125268Y0074794D01*
X0125356Y0074788D01*
X0125444Y0074778D01*
X0125532Y0074764D01*
X0125618Y0074747D01*
X0125704Y0074725D01*
X0125788Y0074700D01*
X0125872Y0074670D01*
X0125954Y0074638D01*
X0126034Y0074601D01*
X0126113Y0074561D01*
X0126190Y0074517D01*
X0126265Y0074470D01*
X0126337Y0074420D01*
X0126408Y0074366D01*
X0126475Y0074310D01*
X0126541Y0074250D01*
X0126603Y0074188D01*
X0126663Y0074122D01*
X0126719Y0074055D01*
X0126773Y0073984D01*
X0126823Y0073912D01*
X0126870Y0073837D01*
X0126914Y0073760D01*
X0126954Y0073681D01*
X0126991Y0073601D01*
X0127023Y0073519D01*
X0127053Y0073435D01*
X0127078Y0073351D01*
X0127100Y0073265D01*
X0127117Y0073179D01*
X0127131Y0073091D01*
X0127141Y0073003D01*
X0127147Y0072915D01*
X0127149Y0072827D01*
X0127147Y0072739D01*
X0127141Y0072651D01*
X0127131Y0072563D01*
X0127117Y0072475D01*
X0127100Y0072389D01*
X0127078Y0072303D01*
X0127053Y0072219D01*
X0127023Y0072135D01*
X0126991Y0072053D01*
X0126954Y0071973D01*
X0126914Y0071894D01*
X0126870Y0071817D01*
X0126823Y0071742D01*
X0126773Y0071670D01*
X0126719Y0071599D01*
X0126663Y0071532D01*
X0126603Y0071466D01*
X0126541Y0071404D01*
X0126475Y0071344D01*
X0126408Y0071288D01*
X0126337Y0071234D01*
X0126265Y0071184D01*
X0126190Y0071137D01*
X0126113Y0071093D01*
X0126034Y0071053D01*
X0125954Y0071016D01*
X0125872Y0070984D01*
X0125788Y0070954D01*
X0125704Y0070929D01*
X0125618Y0070907D01*
X0125532Y0070890D01*
X0125444Y0070876D01*
X0125356Y0070866D01*
X0125268Y0070860D01*
X0125180Y0070858D01*
X0125092Y0070860D01*
X0125004Y0070866D01*
X0124916Y0070876D01*
X0124828Y0070890D01*
X0124742Y0070907D01*
X0124656Y0070929D01*
X0124572Y0070954D01*
X0124488Y0070984D01*
X0124406Y0071016D01*
X0124326Y0071053D01*
X0124247Y0071093D01*
X0124170Y0071137D01*
X0124095Y0071184D01*
X0124023Y0071234D01*
X0123952Y0071288D01*
X0123885Y0071344D01*
X0123819Y0071404D01*
X0123757Y0071466D01*
X0123697Y0071532D01*
X0123641Y0071599D01*
X0123587Y0071670D01*
X0123537Y0071742D01*
X0123490Y0071817D01*
X0123446Y0071894D01*
X0123406Y0071973D01*
X0123369Y0072053D01*
X0123337Y0072135D01*
X0123307Y0072219D01*
X0123282Y0072303D01*
X0123260Y0072389D01*
X0123243Y0072475D01*
X0123229Y0072563D01*
X0123219Y0072651D01*
X0123213Y0072739D01*
X0123211Y0072827D01*
X0133053Y0072827D02*
X0133055Y0072915D01*
X0133061Y0073003D01*
X0133071Y0073091D01*
X0133085Y0073179D01*
X0133102Y0073265D01*
X0133124Y0073351D01*
X0133149Y0073435D01*
X0133179Y0073519D01*
X0133211Y0073601D01*
X0133248Y0073681D01*
X0133288Y0073760D01*
X0133332Y0073837D01*
X0133379Y0073912D01*
X0133429Y0073984D01*
X0133483Y0074055D01*
X0133539Y0074122D01*
X0133599Y0074188D01*
X0133661Y0074250D01*
X0133727Y0074310D01*
X0133794Y0074366D01*
X0133865Y0074420D01*
X0133937Y0074470D01*
X0134012Y0074517D01*
X0134089Y0074561D01*
X0134168Y0074601D01*
X0134248Y0074638D01*
X0134330Y0074670D01*
X0134414Y0074700D01*
X0134498Y0074725D01*
X0134584Y0074747D01*
X0134670Y0074764D01*
X0134758Y0074778D01*
X0134846Y0074788D01*
X0134934Y0074794D01*
X0135022Y0074796D01*
X0135110Y0074794D01*
X0135198Y0074788D01*
X0135286Y0074778D01*
X0135374Y0074764D01*
X0135460Y0074747D01*
X0135546Y0074725D01*
X0135630Y0074700D01*
X0135714Y0074670D01*
X0135796Y0074638D01*
X0135876Y0074601D01*
X0135955Y0074561D01*
X0136032Y0074517D01*
X0136107Y0074470D01*
X0136179Y0074420D01*
X0136250Y0074366D01*
X0136317Y0074310D01*
X0136383Y0074250D01*
X0136445Y0074188D01*
X0136505Y0074122D01*
X0136561Y0074055D01*
X0136615Y0073984D01*
X0136665Y0073912D01*
X0136712Y0073837D01*
X0136756Y0073760D01*
X0136796Y0073681D01*
X0136833Y0073601D01*
X0136865Y0073519D01*
X0136895Y0073435D01*
X0136920Y0073351D01*
X0136942Y0073265D01*
X0136959Y0073179D01*
X0136973Y0073091D01*
X0136983Y0073003D01*
X0136989Y0072915D01*
X0136991Y0072827D01*
X0136989Y0072739D01*
X0136983Y0072651D01*
X0136973Y0072563D01*
X0136959Y0072475D01*
X0136942Y0072389D01*
X0136920Y0072303D01*
X0136895Y0072219D01*
X0136865Y0072135D01*
X0136833Y0072053D01*
X0136796Y0071973D01*
X0136756Y0071894D01*
X0136712Y0071817D01*
X0136665Y0071742D01*
X0136615Y0071670D01*
X0136561Y0071599D01*
X0136505Y0071532D01*
X0136445Y0071466D01*
X0136383Y0071404D01*
X0136317Y0071344D01*
X0136250Y0071288D01*
X0136179Y0071234D01*
X0136107Y0071184D01*
X0136032Y0071137D01*
X0135955Y0071093D01*
X0135876Y0071053D01*
X0135796Y0071016D01*
X0135714Y0070984D01*
X0135630Y0070954D01*
X0135546Y0070929D01*
X0135460Y0070907D01*
X0135374Y0070890D01*
X0135286Y0070876D01*
X0135198Y0070866D01*
X0135110Y0070860D01*
X0135022Y0070858D01*
X0134934Y0070860D01*
X0134846Y0070866D01*
X0134758Y0070876D01*
X0134670Y0070890D01*
X0134584Y0070907D01*
X0134498Y0070929D01*
X0134414Y0070954D01*
X0134330Y0070984D01*
X0134248Y0071016D01*
X0134168Y0071053D01*
X0134089Y0071093D01*
X0134012Y0071137D01*
X0133937Y0071184D01*
X0133865Y0071234D01*
X0133794Y0071288D01*
X0133727Y0071344D01*
X0133661Y0071404D01*
X0133599Y0071466D01*
X0133539Y0071532D01*
X0133483Y0071599D01*
X0133429Y0071670D01*
X0133379Y0071742D01*
X0133332Y0071817D01*
X0133288Y0071894D01*
X0133248Y0071973D01*
X0133211Y0072053D01*
X0133179Y0072135D01*
X0133149Y0072219D01*
X0133124Y0072303D01*
X0133102Y0072389D01*
X0133085Y0072475D01*
X0133071Y0072563D01*
X0133061Y0072651D01*
X0133055Y0072739D01*
X0133053Y0072827D01*
X0142896Y0072827D02*
X0142898Y0072915D01*
X0142904Y0073003D01*
X0142914Y0073091D01*
X0142928Y0073179D01*
X0142945Y0073265D01*
X0142967Y0073351D01*
X0142992Y0073435D01*
X0143022Y0073519D01*
X0143054Y0073601D01*
X0143091Y0073681D01*
X0143131Y0073760D01*
X0143175Y0073837D01*
X0143222Y0073912D01*
X0143272Y0073984D01*
X0143326Y0074055D01*
X0143382Y0074122D01*
X0143442Y0074188D01*
X0143504Y0074250D01*
X0143570Y0074310D01*
X0143637Y0074366D01*
X0143708Y0074420D01*
X0143780Y0074470D01*
X0143855Y0074517D01*
X0143932Y0074561D01*
X0144011Y0074601D01*
X0144091Y0074638D01*
X0144173Y0074670D01*
X0144257Y0074700D01*
X0144341Y0074725D01*
X0144427Y0074747D01*
X0144513Y0074764D01*
X0144601Y0074778D01*
X0144689Y0074788D01*
X0144777Y0074794D01*
X0144865Y0074796D01*
X0144953Y0074794D01*
X0145041Y0074788D01*
X0145129Y0074778D01*
X0145217Y0074764D01*
X0145303Y0074747D01*
X0145389Y0074725D01*
X0145473Y0074700D01*
X0145557Y0074670D01*
X0145639Y0074638D01*
X0145719Y0074601D01*
X0145798Y0074561D01*
X0145875Y0074517D01*
X0145950Y0074470D01*
X0146022Y0074420D01*
X0146093Y0074366D01*
X0146160Y0074310D01*
X0146226Y0074250D01*
X0146288Y0074188D01*
X0146348Y0074122D01*
X0146404Y0074055D01*
X0146458Y0073984D01*
X0146508Y0073912D01*
X0146555Y0073837D01*
X0146599Y0073760D01*
X0146639Y0073681D01*
X0146676Y0073601D01*
X0146708Y0073519D01*
X0146738Y0073435D01*
X0146763Y0073351D01*
X0146785Y0073265D01*
X0146802Y0073179D01*
X0146816Y0073091D01*
X0146826Y0073003D01*
X0146832Y0072915D01*
X0146834Y0072827D01*
X0146832Y0072739D01*
X0146826Y0072651D01*
X0146816Y0072563D01*
X0146802Y0072475D01*
X0146785Y0072389D01*
X0146763Y0072303D01*
X0146738Y0072219D01*
X0146708Y0072135D01*
X0146676Y0072053D01*
X0146639Y0071973D01*
X0146599Y0071894D01*
X0146555Y0071817D01*
X0146508Y0071742D01*
X0146458Y0071670D01*
X0146404Y0071599D01*
X0146348Y0071532D01*
X0146288Y0071466D01*
X0146226Y0071404D01*
X0146160Y0071344D01*
X0146093Y0071288D01*
X0146022Y0071234D01*
X0145950Y0071184D01*
X0145875Y0071137D01*
X0145798Y0071093D01*
X0145719Y0071053D01*
X0145639Y0071016D01*
X0145557Y0070984D01*
X0145473Y0070954D01*
X0145389Y0070929D01*
X0145303Y0070907D01*
X0145217Y0070890D01*
X0145129Y0070876D01*
X0145041Y0070866D01*
X0144953Y0070860D01*
X0144865Y0070858D01*
X0144777Y0070860D01*
X0144689Y0070866D01*
X0144601Y0070876D01*
X0144513Y0070890D01*
X0144427Y0070907D01*
X0144341Y0070929D01*
X0144257Y0070954D01*
X0144173Y0070984D01*
X0144091Y0071016D01*
X0144011Y0071053D01*
X0143932Y0071093D01*
X0143855Y0071137D01*
X0143780Y0071184D01*
X0143708Y0071234D01*
X0143637Y0071288D01*
X0143570Y0071344D01*
X0143504Y0071404D01*
X0143442Y0071466D01*
X0143382Y0071532D01*
X0143326Y0071599D01*
X0143272Y0071670D01*
X0143222Y0071742D01*
X0143175Y0071817D01*
X0143131Y0071894D01*
X0143091Y0071973D01*
X0143054Y0072053D01*
X0143022Y0072135D01*
X0142992Y0072219D01*
X0142967Y0072303D01*
X0142945Y0072389D01*
X0142928Y0072475D01*
X0142914Y0072563D01*
X0142904Y0072651D01*
X0142898Y0072739D01*
X0142896Y0072827D01*
X0152738Y0072827D02*
X0152740Y0072915D01*
X0152746Y0073003D01*
X0152756Y0073091D01*
X0152770Y0073179D01*
X0152787Y0073265D01*
X0152809Y0073351D01*
X0152834Y0073435D01*
X0152864Y0073519D01*
X0152896Y0073601D01*
X0152933Y0073681D01*
X0152973Y0073760D01*
X0153017Y0073837D01*
X0153064Y0073912D01*
X0153114Y0073984D01*
X0153168Y0074055D01*
X0153224Y0074122D01*
X0153284Y0074188D01*
X0153346Y0074250D01*
X0153412Y0074310D01*
X0153479Y0074366D01*
X0153550Y0074420D01*
X0153622Y0074470D01*
X0153697Y0074517D01*
X0153774Y0074561D01*
X0153853Y0074601D01*
X0153933Y0074638D01*
X0154015Y0074670D01*
X0154099Y0074700D01*
X0154183Y0074725D01*
X0154269Y0074747D01*
X0154355Y0074764D01*
X0154443Y0074778D01*
X0154531Y0074788D01*
X0154619Y0074794D01*
X0154707Y0074796D01*
X0154795Y0074794D01*
X0154883Y0074788D01*
X0154971Y0074778D01*
X0155059Y0074764D01*
X0155145Y0074747D01*
X0155231Y0074725D01*
X0155315Y0074700D01*
X0155399Y0074670D01*
X0155481Y0074638D01*
X0155561Y0074601D01*
X0155640Y0074561D01*
X0155717Y0074517D01*
X0155792Y0074470D01*
X0155864Y0074420D01*
X0155935Y0074366D01*
X0156002Y0074310D01*
X0156068Y0074250D01*
X0156130Y0074188D01*
X0156190Y0074122D01*
X0156246Y0074055D01*
X0156300Y0073984D01*
X0156350Y0073912D01*
X0156397Y0073837D01*
X0156441Y0073760D01*
X0156481Y0073681D01*
X0156518Y0073601D01*
X0156550Y0073519D01*
X0156580Y0073435D01*
X0156605Y0073351D01*
X0156627Y0073265D01*
X0156644Y0073179D01*
X0156658Y0073091D01*
X0156668Y0073003D01*
X0156674Y0072915D01*
X0156676Y0072827D01*
X0156674Y0072739D01*
X0156668Y0072651D01*
X0156658Y0072563D01*
X0156644Y0072475D01*
X0156627Y0072389D01*
X0156605Y0072303D01*
X0156580Y0072219D01*
X0156550Y0072135D01*
X0156518Y0072053D01*
X0156481Y0071973D01*
X0156441Y0071894D01*
X0156397Y0071817D01*
X0156350Y0071742D01*
X0156300Y0071670D01*
X0156246Y0071599D01*
X0156190Y0071532D01*
X0156130Y0071466D01*
X0156068Y0071404D01*
X0156002Y0071344D01*
X0155935Y0071288D01*
X0155864Y0071234D01*
X0155792Y0071184D01*
X0155717Y0071137D01*
X0155640Y0071093D01*
X0155561Y0071053D01*
X0155481Y0071016D01*
X0155399Y0070984D01*
X0155315Y0070954D01*
X0155231Y0070929D01*
X0155145Y0070907D01*
X0155059Y0070890D01*
X0154971Y0070876D01*
X0154883Y0070866D01*
X0154795Y0070860D01*
X0154707Y0070858D01*
X0154619Y0070860D01*
X0154531Y0070866D01*
X0154443Y0070876D01*
X0154355Y0070890D01*
X0154269Y0070907D01*
X0154183Y0070929D01*
X0154099Y0070954D01*
X0154015Y0070984D01*
X0153933Y0071016D01*
X0153853Y0071053D01*
X0153774Y0071093D01*
X0153697Y0071137D01*
X0153622Y0071184D01*
X0153550Y0071234D01*
X0153479Y0071288D01*
X0153412Y0071344D01*
X0153346Y0071404D01*
X0153284Y0071466D01*
X0153224Y0071532D01*
X0153168Y0071599D01*
X0153114Y0071670D01*
X0153064Y0071742D01*
X0153017Y0071817D01*
X0152973Y0071894D01*
X0152933Y0071973D01*
X0152896Y0072053D01*
X0152864Y0072135D01*
X0152834Y0072219D01*
X0152809Y0072303D01*
X0152787Y0072389D01*
X0152770Y0072475D01*
X0152756Y0072563D01*
X0152746Y0072651D01*
X0152740Y0072739D01*
X0152738Y0072827D01*
X0162581Y0072827D02*
X0162583Y0072915D01*
X0162589Y0073003D01*
X0162599Y0073091D01*
X0162613Y0073179D01*
X0162630Y0073265D01*
X0162652Y0073351D01*
X0162677Y0073435D01*
X0162707Y0073519D01*
X0162739Y0073601D01*
X0162776Y0073681D01*
X0162816Y0073760D01*
X0162860Y0073837D01*
X0162907Y0073912D01*
X0162957Y0073984D01*
X0163011Y0074055D01*
X0163067Y0074122D01*
X0163127Y0074188D01*
X0163189Y0074250D01*
X0163255Y0074310D01*
X0163322Y0074366D01*
X0163393Y0074420D01*
X0163465Y0074470D01*
X0163540Y0074517D01*
X0163617Y0074561D01*
X0163696Y0074601D01*
X0163776Y0074638D01*
X0163858Y0074670D01*
X0163942Y0074700D01*
X0164026Y0074725D01*
X0164112Y0074747D01*
X0164198Y0074764D01*
X0164286Y0074778D01*
X0164374Y0074788D01*
X0164462Y0074794D01*
X0164550Y0074796D01*
X0164638Y0074794D01*
X0164726Y0074788D01*
X0164814Y0074778D01*
X0164902Y0074764D01*
X0164988Y0074747D01*
X0165074Y0074725D01*
X0165158Y0074700D01*
X0165242Y0074670D01*
X0165324Y0074638D01*
X0165404Y0074601D01*
X0165483Y0074561D01*
X0165560Y0074517D01*
X0165635Y0074470D01*
X0165707Y0074420D01*
X0165778Y0074366D01*
X0165845Y0074310D01*
X0165911Y0074250D01*
X0165973Y0074188D01*
X0166033Y0074122D01*
X0166089Y0074055D01*
X0166143Y0073984D01*
X0166193Y0073912D01*
X0166240Y0073837D01*
X0166284Y0073760D01*
X0166324Y0073681D01*
X0166361Y0073601D01*
X0166393Y0073519D01*
X0166423Y0073435D01*
X0166448Y0073351D01*
X0166470Y0073265D01*
X0166487Y0073179D01*
X0166501Y0073091D01*
X0166511Y0073003D01*
X0166517Y0072915D01*
X0166519Y0072827D01*
X0166517Y0072739D01*
X0166511Y0072651D01*
X0166501Y0072563D01*
X0166487Y0072475D01*
X0166470Y0072389D01*
X0166448Y0072303D01*
X0166423Y0072219D01*
X0166393Y0072135D01*
X0166361Y0072053D01*
X0166324Y0071973D01*
X0166284Y0071894D01*
X0166240Y0071817D01*
X0166193Y0071742D01*
X0166143Y0071670D01*
X0166089Y0071599D01*
X0166033Y0071532D01*
X0165973Y0071466D01*
X0165911Y0071404D01*
X0165845Y0071344D01*
X0165778Y0071288D01*
X0165707Y0071234D01*
X0165635Y0071184D01*
X0165560Y0071137D01*
X0165483Y0071093D01*
X0165404Y0071053D01*
X0165324Y0071016D01*
X0165242Y0070984D01*
X0165158Y0070954D01*
X0165074Y0070929D01*
X0164988Y0070907D01*
X0164902Y0070890D01*
X0164814Y0070876D01*
X0164726Y0070866D01*
X0164638Y0070860D01*
X0164550Y0070858D01*
X0164462Y0070860D01*
X0164374Y0070866D01*
X0164286Y0070876D01*
X0164198Y0070890D01*
X0164112Y0070907D01*
X0164026Y0070929D01*
X0163942Y0070954D01*
X0163858Y0070984D01*
X0163776Y0071016D01*
X0163696Y0071053D01*
X0163617Y0071093D01*
X0163540Y0071137D01*
X0163465Y0071184D01*
X0163393Y0071234D01*
X0163322Y0071288D01*
X0163255Y0071344D01*
X0163189Y0071404D01*
X0163127Y0071466D01*
X0163067Y0071532D01*
X0163011Y0071599D01*
X0162957Y0071670D01*
X0162907Y0071742D01*
X0162860Y0071817D01*
X0162816Y0071894D01*
X0162776Y0071973D01*
X0162739Y0072053D01*
X0162707Y0072135D01*
X0162677Y0072219D01*
X0162652Y0072303D01*
X0162630Y0072389D01*
X0162613Y0072475D01*
X0162599Y0072563D01*
X0162589Y0072651D01*
X0162583Y0072739D01*
X0162581Y0072827D01*
X0172424Y0072827D02*
X0172426Y0072915D01*
X0172432Y0073003D01*
X0172442Y0073091D01*
X0172456Y0073179D01*
X0172473Y0073265D01*
X0172495Y0073351D01*
X0172520Y0073435D01*
X0172550Y0073519D01*
X0172582Y0073601D01*
X0172619Y0073681D01*
X0172659Y0073760D01*
X0172703Y0073837D01*
X0172750Y0073912D01*
X0172800Y0073984D01*
X0172854Y0074055D01*
X0172910Y0074122D01*
X0172970Y0074188D01*
X0173032Y0074250D01*
X0173098Y0074310D01*
X0173165Y0074366D01*
X0173236Y0074420D01*
X0173308Y0074470D01*
X0173383Y0074517D01*
X0173460Y0074561D01*
X0173539Y0074601D01*
X0173619Y0074638D01*
X0173701Y0074670D01*
X0173785Y0074700D01*
X0173869Y0074725D01*
X0173955Y0074747D01*
X0174041Y0074764D01*
X0174129Y0074778D01*
X0174217Y0074788D01*
X0174305Y0074794D01*
X0174393Y0074796D01*
X0174481Y0074794D01*
X0174569Y0074788D01*
X0174657Y0074778D01*
X0174745Y0074764D01*
X0174831Y0074747D01*
X0174917Y0074725D01*
X0175001Y0074700D01*
X0175085Y0074670D01*
X0175167Y0074638D01*
X0175247Y0074601D01*
X0175326Y0074561D01*
X0175403Y0074517D01*
X0175478Y0074470D01*
X0175550Y0074420D01*
X0175621Y0074366D01*
X0175688Y0074310D01*
X0175754Y0074250D01*
X0175816Y0074188D01*
X0175876Y0074122D01*
X0175932Y0074055D01*
X0175986Y0073984D01*
X0176036Y0073912D01*
X0176083Y0073837D01*
X0176127Y0073760D01*
X0176167Y0073681D01*
X0176204Y0073601D01*
X0176236Y0073519D01*
X0176266Y0073435D01*
X0176291Y0073351D01*
X0176313Y0073265D01*
X0176330Y0073179D01*
X0176344Y0073091D01*
X0176354Y0073003D01*
X0176360Y0072915D01*
X0176362Y0072827D01*
X0176360Y0072739D01*
X0176354Y0072651D01*
X0176344Y0072563D01*
X0176330Y0072475D01*
X0176313Y0072389D01*
X0176291Y0072303D01*
X0176266Y0072219D01*
X0176236Y0072135D01*
X0176204Y0072053D01*
X0176167Y0071973D01*
X0176127Y0071894D01*
X0176083Y0071817D01*
X0176036Y0071742D01*
X0175986Y0071670D01*
X0175932Y0071599D01*
X0175876Y0071532D01*
X0175816Y0071466D01*
X0175754Y0071404D01*
X0175688Y0071344D01*
X0175621Y0071288D01*
X0175550Y0071234D01*
X0175478Y0071184D01*
X0175403Y0071137D01*
X0175326Y0071093D01*
X0175247Y0071053D01*
X0175167Y0071016D01*
X0175085Y0070984D01*
X0175001Y0070954D01*
X0174917Y0070929D01*
X0174831Y0070907D01*
X0174745Y0070890D01*
X0174657Y0070876D01*
X0174569Y0070866D01*
X0174481Y0070860D01*
X0174393Y0070858D01*
X0174305Y0070860D01*
X0174217Y0070866D01*
X0174129Y0070876D01*
X0174041Y0070890D01*
X0173955Y0070907D01*
X0173869Y0070929D01*
X0173785Y0070954D01*
X0173701Y0070984D01*
X0173619Y0071016D01*
X0173539Y0071053D01*
X0173460Y0071093D01*
X0173383Y0071137D01*
X0173308Y0071184D01*
X0173236Y0071234D01*
X0173165Y0071288D01*
X0173098Y0071344D01*
X0173032Y0071404D01*
X0172970Y0071466D01*
X0172910Y0071532D01*
X0172854Y0071599D01*
X0172800Y0071670D01*
X0172750Y0071742D01*
X0172703Y0071817D01*
X0172659Y0071894D01*
X0172619Y0071973D01*
X0172582Y0072053D01*
X0172550Y0072135D01*
X0172520Y0072219D01*
X0172495Y0072303D01*
X0172473Y0072389D01*
X0172456Y0072475D01*
X0172442Y0072563D01*
X0172432Y0072651D01*
X0172426Y0072739D01*
X0172424Y0072827D01*
X0182266Y0072827D02*
X0182268Y0072915D01*
X0182274Y0073003D01*
X0182284Y0073091D01*
X0182298Y0073179D01*
X0182315Y0073265D01*
X0182337Y0073351D01*
X0182362Y0073435D01*
X0182392Y0073519D01*
X0182424Y0073601D01*
X0182461Y0073681D01*
X0182501Y0073760D01*
X0182545Y0073837D01*
X0182592Y0073912D01*
X0182642Y0073984D01*
X0182696Y0074055D01*
X0182752Y0074122D01*
X0182812Y0074188D01*
X0182874Y0074250D01*
X0182940Y0074310D01*
X0183007Y0074366D01*
X0183078Y0074420D01*
X0183150Y0074470D01*
X0183225Y0074517D01*
X0183302Y0074561D01*
X0183381Y0074601D01*
X0183461Y0074638D01*
X0183543Y0074670D01*
X0183627Y0074700D01*
X0183711Y0074725D01*
X0183797Y0074747D01*
X0183883Y0074764D01*
X0183971Y0074778D01*
X0184059Y0074788D01*
X0184147Y0074794D01*
X0184235Y0074796D01*
X0184323Y0074794D01*
X0184411Y0074788D01*
X0184499Y0074778D01*
X0184587Y0074764D01*
X0184673Y0074747D01*
X0184759Y0074725D01*
X0184843Y0074700D01*
X0184927Y0074670D01*
X0185009Y0074638D01*
X0185089Y0074601D01*
X0185168Y0074561D01*
X0185245Y0074517D01*
X0185320Y0074470D01*
X0185392Y0074420D01*
X0185463Y0074366D01*
X0185530Y0074310D01*
X0185596Y0074250D01*
X0185658Y0074188D01*
X0185718Y0074122D01*
X0185774Y0074055D01*
X0185828Y0073984D01*
X0185878Y0073912D01*
X0185925Y0073837D01*
X0185969Y0073760D01*
X0186009Y0073681D01*
X0186046Y0073601D01*
X0186078Y0073519D01*
X0186108Y0073435D01*
X0186133Y0073351D01*
X0186155Y0073265D01*
X0186172Y0073179D01*
X0186186Y0073091D01*
X0186196Y0073003D01*
X0186202Y0072915D01*
X0186204Y0072827D01*
X0186202Y0072739D01*
X0186196Y0072651D01*
X0186186Y0072563D01*
X0186172Y0072475D01*
X0186155Y0072389D01*
X0186133Y0072303D01*
X0186108Y0072219D01*
X0186078Y0072135D01*
X0186046Y0072053D01*
X0186009Y0071973D01*
X0185969Y0071894D01*
X0185925Y0071817D01*
X0185878Y0071742D01*
X0185828Y0071670D01*
X0185774Y0071599D01*
X0185718Y0071532D01*
X0185658Y0071466D01*
X0185596Y0071404D01*
X0185530Y0071344D01*
X0185463Y0071288D01*
X0185392Y0071234D01*
X0185320Y0071184D01*
X0185245Y0071137D01*
X0185168Y0071093D01*
X0185089Y0071053D01*
X0185009Y0071016D01*
X0184927Y0070984D01*
X0184843Y0070954D01*
X0184759Y0070929D01*
X0184673Y0070907D01*
X0184587Y0070890D01*
X0184499Y0070876D01*
X0184411Y0070866D01*
X0184323Y0070860D01*
X0184235Y0070858D01*
X0184147Y0070860D01*
X0184059Y0070866D01*
X0183971Y0070876D01*
X0183883Y0070890D01*
X0183797Y0070907D01*
X0183711Y0070929D01*
X0183627Y0070954D01*
X0183543Y0070984D01*
X0183461Y0071016D01*
X0183381Y0071053D01*
X0183302Y0071093D01*
X0183225Y0071137D01*
X0183150Y0071184D01*
X0183078Y0071234D01*
X0183007Y0071288D01*
X0182940Y0071344D01*
X0182874Y0071404D01*
X0182812Y0071466D01*
X0182752Y0071532D01*
X0182696Y0071599D01*
X0182642Y0071670D01*
X0182592Y0071742D01*
X0182545Y0071817D01*
X0182501Y0071894D01*
X0182461Y0071973D01*
X0182424Y0072053D01*
X0182392Y0072135D01*
X0182362Y0072219D01*
X0182337Y0072303D01*
X0182315Y0072389D01*
X0182298Y0072475D01*
X0182284Y0072563D01*
X0182274Y0072651D01*
X0182268Y0072739D01*
X0182266Y0072827D01*
X0192109Y0072827D02*
X0192111Y0072915D01*
X0192117Y0073003D01*
X0192127Y0073091D01*
X0192141Y0073179D01*
X0192158Y0073265D01*
X0192180Y0073351D01*
X0192205Y0073435D01*
X0192235Y0073519D01*
X0192267Y0073601D01*
X0192304Y0073681D01*
X0192344Y0073760D01*
X0192388Y0073837D01*
X0192435Y0073912D01*
X0192485Y0073984D01*
X0192539Y0074055D01*
X0192595Y0074122D01*
X0192655Y0074188D01*
X0192717Y0074250D01*
X0192783Y0074310D01*
X0192850Y0074366D01*
X0192921Y0074420D01*
X0192993Y0074470D01*
X0193068Y0074517D01*
X0193145Y0074561D01*
X0193224Y0074601D01*
X0193304Y0074638D01*
X0193386Y0074670D01*
X0193470Y0074700D01*
X0193554Y0074725D01*
X0193640Y0074747D01*
X0193726Y0074764D01*
X0193814Y0074778D01*
X0193902Y0074788D01*
X0193990Y0074794D01*
X0194078Y0074796D01*
X0194166Y0074794D01*
X0194254Y0074788D01*
X0194342Y0074778D01*
X0194430Y0074764D01*
X0194516Y0074747D01*
X0194602Y0074725D01*
X0194686Y0074700D01*
X0194770Y0074670D01*
X0194852Y0074638D01*
X0194932Y0074601D01*
X0195011Y0074561D01*
X0195088Y0074517D01*
X0195163Y0074470D01*
X0195235Y0074420D01*
X0195306Y0074366D01*
X0195373Y0074310D01*
X0195439Y0074250D01*
X0195501Y0074188D01*
X0195561Y0074122D01*
X0195617Y0074055D01*
X0195671Y0073984D01*
X0195721Y0073912D01*
X0195768Y0073837D01*
X0195812Y0073760D01*
X0195852Y0073681D01*
X0195889Y0073601D01*
X0195921Y0073519D01*
X0195951Y0073435D01*
X0195976Y0073351D01*
X0195998Y0073265D01*
X0196015Y0073179D01*
X0196029Y0073091D01*
X0196039Y0073003D01*
X0196045Y0072915D01*
X0196047Y0072827D01*
X0196045Y0072739D01*
X0196039Y0072651D01*
X0196029Y0072563D01*
X0196015Y0072475D01*
X0195998Y0072389D01*
X0195976Y0072303D01*
X0195951Y0072219D01*
X0195921Y0072135D01*
X0195889Y0072053D01*
X0195852Y0071973D01*
X0195812Y0071894D01*
X0195768Y0071817D01*
X0195721Y0071742D01*
X0195671Y0071670D01*
X0195617Y0071599D01*
X0195561Y0071532D01*
X0195501Y0071466D01*
X0195439Y0071404D01*
X0195373Y0071344D01*
X0195306Y0071288D01*
X0195235Y0071234D01*
X0195163Y0071184D01*
X0195088Y0071137D01*
X0195011Y0071093D01*
X0194932Y0071053D01*
X0194852Y0071016D01*
X0194770Y0070984D01*
X0194686Y0070954D01*
X0194602Y0070929D01*
X0194516Y0070907D01*
X0194430Y0070890D01*
X0194342Y0070876D01*
X0194254Y0070866D01*
X0194166Y0070860D01*
X0194078Y0070858D01*
X0193990Y0070860D01*
X0193902Y0070866D01*
X0193814Y0070876D01*
X0193726Y0070890D01*
X0193640Y0070907D01*
X0193554Y0070929D01*
X0193470Y0070954D01*
X0193386Y0070984D01*
X0193304Y0071016D01*
X0193224Y0071053D01*
X0193145Y0071093D01*
X0193068Y0071137D01*
X0192993Y0071184D01*
X0192921Y0071234D01*
X0192850Y0071288D01*
X0192783Y0071344D01*
X0192717Y0071404D01*
X0192655Y0071466D01*
X0192595Y0071532D01*
X0192539Y0071599D01*
X0192485Y0071670D01*
X0192435Y0071742D01*
X0192388Y0071817D01*
X0192344Y0071894D01*
X0192304Y0071973D01*
X0192267Y0072053D01*
X0192235Y0072135D01*
X0192205Y0072219D01*
X0192180Y0072303D01*
X0192158Y0072389D01*
X0192141Y0072475D01*
X0192127Y0072563D01*
X0192117Y0072651D01*
X0192111Y0072739D01*
X0192109Y0072827D01*
X0201951Y0072827D02*
X0201953Y0072915D01*
X0201959Y0073003D01*
X0201969Y0073091D01*
X0201983Y0073179D01*
X0202000Y0073265D01*
X0202022Y0073351D01*
X0202047Y0073435D01*
X0202077Y0073519D01*
X0202109Y0073601D01*
X0202146Y0073681D01*
X0202186Y0073760D01*
X0202230Y0073837D01*
X0202277Y0073912D01*
X0202327Y0073984D01*
X0202381Y0074055D01*
X0202437Y0074122D01*
X0202497Y0074188D01*
X0202559Y0074250D01*
X0202625Y0074310D01*
X0202692Y0074366D01*
X0202763Y0074420D01*
X0202835Y0074470D01*
X0202910Y0074517D01*
X0202987Y0074561D01*
X0203066Y0074601D01*
X0203146Y0074638D01*
X0203228Y0074670D01*
X0203312Y0074700D01*
X0203396Y0074725D01*
X0203482Y0074747D01*
X0203568Y0074764D01*
X0203656Y0074778D01*
X0203744Y0074788D01*
X0203832Y0074794D01*
X0203920Y0074796D01*
X0204008Y0074794D01*
X0204096Y0074788D01*
X0204184Y0074778D01*
X0204272Y0074764D01*
X0204358Y0074747D01*
X0204444Y0074725D01*
X0204528Y0074700D01*
X0204612Y0074670D01*
X0204694Y0074638D01*
X0204774Y0074601D01*
X0204853Y0074561D01*
X0204930Y0074517D01*
X0205005Y0074470D01*
X0205077Y0074420D01*
X0205148Y0074366D01*
X0205215Y0074310D01*
X0205281Y0074250D01*
X0205343Y0074188D01*
X0205403Y0074122D01*
X0205459Y0074055D01*
X0205513Y0073984D01*
X0205563Y0073912D01*
X0205610Y0073837D01*
X0205654Y0073760D01*
X0205694Y0073681D01*
X0205731Y0073601D01*
X0205763Y0073519D01*
X0205793Y0073435D01*
X0205818Y0073351D01*
X0205840Y0073265D01*
X0205857Y0073179D01*
X0205871Y0073091D01*
X0205881Y0073003D01*
X0205887Y0072915D01*
X0205889Y0072827D01*
X0205887Y0072739D01*
X0205881Y0072651D01*
X0205871Y0072563D01*
X0205857Y0072475D01*
X0205840Y0072389D01*
X0205818Y0072303D01*
X0205793Y0072219D01*
X0205763Y0072135D01*
X0205731Y0072053D01*
X0205694Y0071973D01*
X0205654Y0071894D01*
X0205610Y0071817D01*
X0205563Y0071742D01*
X0205513Y0071670D01*
X0205459Y0071599D01*
X0205403Y0071532D01*
X0205343Y0071466D01*
X0205281Y0071404D01*
X0205215Y0071344D01*
X0205148Y0071288D01*
X0205077Y0071234D01*
X0205005Y0071184D01*
X0204930Y0071137D01*
X0204853Y0071093D01*
X0204774Y0071053D01*
X0204694Y0071016D01*
X0204612Y0070984D01*
X0204528Y0070954D01*
X0204444Y0070929D01*
X0204358Y0070907D01*
X0204272Y0070890D01*
X0204184Y0070876D01*
X0204096Y0070866D01*
X0204008Y0070860D01*
X0203920Y0070858D01*
X0203832Y0070860D01*
X0203744Y0070866D01*
X0203656Y0070876D01*
X0203568Y0070890D01*
X0203482Y0070907D01*
X0203396Y0070929D01*
X0203312Y0070954D01*
X0203228Y0070984D01*
X0203146Y0071016D01*
X0203066Y0071053D01*
X0202987Y0071093D01*
X0202910Y0071137D01*
X0202835Y0071184D01*
X0202763Y0071234D01*
X0202692Y0071288D01*
X0202625Y0071344D01*
X0202559Y0071404D01*
X0202497Y0071466D01*
X0202437Y0071532D01*
X0202381Y0071599D01*
X0202327Y0071670D01*
X0202277Y0071742D01*
X0202230Y0071817D01*
X0202186Y0071894D01*
X0202146Y0071973D01*
X0202109Y0072053D01*
X0202077Y0072135D01*
X0202047Y0072219D01*
X0202022Y0072303D01*
X0202000Y0072389D01*
X0201983Y0072475D01*
X0201969Y0072563D01*
X0201959Y0072651D01*
X0201953Y0072739D01*
X0201951Y0072827D01*
X0211794Y0072827D02*
X0211796Y0072915D01*
X0211802Y0073003D01*
X0211812Y0073091D01*
X0211826Y0073179D01*
X0211843Y0073265D01*
X0211865Y0073351D01*
X0211890Y0073435D01*
X0211920Y0073519D01*
X0211952Y0073601D01*
X0211989Y0073681D01*
X0212029Y0073760D01*
X0212073Y0073837D01*
X0212120Y0073912D01*
X0212170Y0073984D01*
X0212224Y0074055D01*
X0212280Y0074122D01*
X0212340Y0074188D01*
X0212402Y0074250D01*
X0212468Y0074310D01*
X0212535Y0074366D01*
X0212606Y0074420D01*
X0212678Y0074470D01*
X0212753Y0074517D01*
X0212830Y0074561D01*
X0212909Y0074601D01*
X0212989Y0074638D01*
X0213071Y0074670D01*
X0213155Y0074700D01*
X0213239Y0074725D01*
X0213325Y0074747D01*
X0213411Y0074764D01*
X0213499Y0074778D01*
X0213587Y0074788D01*
X0213675Y0074794D01*
X0213763Y0074796D01*
X0213851Y0074794D01*
X0213939Y0074788D01*
X0214027Y0074778D01*
X0214115Y0074764D01*
X0214201Y0074747D01*
X0214287Y0074725D01*
X0214371Y0074700D01*
X0214455Y0074670D01*
X0214537Y0074638D01*
X0214617Y0074601D01*
X0214696Y0074561D01*
X0214773Y0074517D01*
X0214848Y0074470D01*
X0214920Y0074420D01*
X0214991Y0074366D01*
X0215058Y0074310D01*
X0215124Y0074250D01*
X0215186Y0074188D01*
X0215246Y0074122D01*
X0215302Y0074055D01*
X0215356Y0073984D01*
X0215406Y0073912D01*
X0215453Y0073837D01*
X0215497Y0073760D01*
X0215537Y0073681D01*
X0215574Y0073601D01*
X0215606Y0073519D01*
X0215636Y0073435D01*
X0215661Y0073351D01*
X0215683Y0073265D01*
X0215700Y0073179D01*
X0215714Y0073091D01*
X0215724Y0073003D01*
X0215730Y0072915D01*
X0215732Y0072827D01*
X0215730Y0072739D01*
X0215724Y0072651D01*
X0215714Y0072563D01*
X0215700Y0072475D01*
X0215683Y0072389D01*
X0215661Y0072303D01*
X0215636Y0072219D01*
X0215606Y0072135D01*
X0215574Y0072053D01*
X0215537Y0071973D01*
X0215497Y0071894D01*
X0215453Y0071817D01*
X0215406Y0071742D01*
X0215356Y0071670D01*
X0215302Y0071599D01*
X0215246Y0071532D01*
X0215186Y0071466D01*
X0215124Y0071404D01*
X0215058Y0071344D01*
X0214991Y0071288D01*
X0214920Y0071234D01*
X0214848Y0071184D01*
X0214773Y0071137D01*
X0214696Y0071093D01*
X0214617Y0071053D01*
X0214537Y0071016D01*
X0214455Y0070984D01*
X0214371Y0070954D01*
X0214287Y0070929D01*
X0214201Y0070907D01*
X0214115Y0070890D01*
X0214027Y0070876D01*
X0213939Y0070866D01*
X0213851Y0070860D01*
X0213763Y0070858D01*
X0213675Y0070860D01*
X0213587Y0070866D01*
X0213499Y0070876D01*
X0213411Y0070890D01*
X0213325Y0070907D01*
X0213239Y0070929D01*
X0213155Y0070954D01*
X0213071Y0070984D01*
X0212989Y0071016D01*
X0212909Y0071053D01*
X0212830Y0071093D01*
X0212753Y0071137D01*
X0212678Y0071184D01*
X0212606Y0071234D01*
X0212535Y0071288D01*
X0212468Y0071344D01*
X0212402Y0071404D01*
X0212340Y0071466D01*
X0212280Y0071532D01*
X0212224Y0071599D01*
X0212170Y0071670D01*
X0212120Y0071742D01*
X0212073Y0071817D01*
X0212029Y0071894D01*
X0211989Y0071973D01*
X0211952Y0072053D01*
X0211920Y0072135D01*
X0211890Y0072219D01*
X0211865Y0072303D01*
X0211843Y0072389D01*
X0211826Y0072475D01*
X0211812Y0072563D01*
X0211802Y0072651D01*
X0211796Y0072739D01*
X0211794Y0072827D01*
X0221636Y0072827D02*
X0221638Y0072915D01*
X0221644Y0073003D01*
X0221654Y0073091D01*
X0221668Y0073179D01*
X0221685Y0073265D01*
X0221707Y0073351D01*
X0221732Y0073435D01*
X0221762Y0073519D01*
X0221794Y0073601D01*
X0221831Y0073681D01*
X0221871Y0073760D01*
X0221915Y0073837D01*
X0221962Y0073912D01*
X0222012Y0073984D01*
X0222066Y0074055D01*
X0222122Y0074122D01*
X0222182Y0074188D01*
X0222244Y0074250D01*
X0222310Y0074310D01*
X0222377Y0074366D01*
X0222448Y0074420D01*
X0222520Y0074470D01*
X0222595Y0074517D01*
X0222672Y0074561D01*
X0222751Y0074601D01*
X0222831Y0074638D01*
X0222913Y0074670D01*
X0222997Y0074700D01*
X0223081Y0074725D01*
X0223167Y0074747D01*
X0223253Y0074764D01*
X0223341Y0074778D01*
X0223429Y0074788D01*
X0223517Y0074794D01*
X0223605Y0074796D01*
X0223693Y0074794D01*
X0223781Y0074788D01*
X0223869Y0074778D01*
X0223957Y0074764D01*
X0224043Y0074747D01*
X0224129Y0074725D01*
X0224213Y0074700D01*
X0224297Y0074670D01*
X0224379Y0074638D01*
X0224459Y0074601D01*
X0224538Y0074561D01*
X0224615Y0074517D01*
X0224690Y0074470D01*
X0224762Y0074420D01*
X0224833Y0074366D01*
X0224900Y0074310D01*
X0224966Y0074250D01*
X0225028Y0074188D01*
X0225088Y0074122D01*
X0225144Y0074055D01*
X0225198Y0073984D01*
X0225248Y0073912D01*
X0225295Y0073837D01*
X0225339Y0073760D01*
X0225379Y0073681D01*
X0225416Y0073601D01*
X0225448Y0073519D01*
X0225478Y0073435D01*
X0225503Y0073351D01*
X0225525Y0073265D01*
X0225542Y0073179D01*
X0225556Y0073091D01*
X0225566Y0073003D01*
X0225572Y0072915D01*
X0225574Y0072827D01*
X0225572Y0072739D01*
X0225566Y0072651D01*
X0225556Y0072563D01*
X0225542Y0072475D01*
X0225525Y0072389D01*
X0225503Y0072303D01*
X0225478Y0072219D01*
X0225448Y0072135D01*
X0225416Y0072053D01*
X0225379Y0071973D01*
X0225339Y0071894D01*
X0225295Y0071817D01*
X0225248Y0071742D01*
X0225198Y0071670D01*
X0225144Y0071599D01*
X0225088Y0071532D01*
X0225028Y0071466D01*
X0224966Y0071404D01*
X0224900Y0071344D01*
X0224833Y0071288D01*
X0224762Y0071234D01*
X0224690Y0071184D01*
X0224615Y0071137D01*
X0224538Y0071093D01*
X0224459Y0071053D01*
X0224379Y0071016D01*
X0224297Y0070984D01*
X0224213Y0070954D01*
X0224129Y0070929D01*
X0224043Y0070907D01*
X0223957Y0070890D01*
X0223869Y0070876D01*
X0223781Y0070866D01*
X0223693Y0070860D01*
X0223605Y0070858D01*
X0223517Y0070860D01*
X0223429Y0070866D01*
X0223341Y0070876D01*
X0223253Y0070890D01*
X0223167Y0070907D01*
X0223081Y0070929D01*
X0222997Y0070954D01*
X0222913Y0070984D01*
X0222831Y0071016D01*
X0222751Y0071053D01*
X0222672Y0071093D01*
X0222595Y0071137D01*
X0222520Y0071184D01*
X0222448Y0071234D01*
X0222377Y0071288D01*
X0222310Y0071344D01*
X0222244Y0071404D01*
X0222182Y0071466D01*
X0222122Y0071532D01*
X0222066Y0071599D01*
X0222012Y0071670D01*
X0221962Y0071742D01*
X0221915Y0071817D01*
X0221871Y0071894D01*
X0221831Y0071973D01*
X0221794Y0072053D01*
X0221762Y0072135D01*
X0221732Y0072219D01*
X0221707Y0072303D01*
X0221685Y0072389D01*
X0221668Y0072475D01*
X0221654Y0072563D01*
X0221644Y0072651D01*
X0221638Y0072739D01*
X0221636Y0072827D01*
X0231479Y0072827D02*
X0231481Y0072915D01*
X0231487Y0073003D01*
X0231497Y0073091D01*
X0231511Y0073179D01*
X0231528Y0073265D01*
X0231550Y0073351D01*
X0231575Y0073435D01*
X0231605Y0073519D01*
X0231637Y0073601D01*
X0231674Y0073681D01*
X0231714Y0073760D01*
X0231758Y0073837D01*
X0231805Y0073912D01*
X0231855Y0073984D01*
X0231909Y0074055D01*
X0231965Y0074122D01*
X0232025Y0074188D01*
X0232087Y0074250D01*
X0232153Y0074310D01*
X0232220Y0074366D01*
X0232291Y0074420D01*
X0232363Y0074470D01*
X0232438Y0074517D01*
X0232515Y0074561D01*
X0232594Y0074601D01*
X0232674Y0074638D01*
X0232756Y0074670D01*
X0232840Y0074700D01*
X0232924Y0074725D01*
X0233010Y0074747D01*
X0233096Y0074764D01*
X0233184Y0074778D01*
X0233272Y0074788D01*
X0233360Y0074794D01*
X0233448Y0074796D01*
X0233536Y0074794D01*
X0233624Y0074788D01*
X0233712Y0074778D01*
X0233800Y0074764D01*
X0233886Y0074747D01*
X0233972Y0074725D01*
X0234056Y0074700D01*
X0234140Y0074670D01*
X0234222Y0074638D01*
X0234302Y0074601D01*
X0234381Y0074561D01*
X0234458Y0074517D01*
X0234533Y0074470D01*
X0234605Y0074420D01*
X0234676Y0074366D01*
X0234743Y0074310D01*
X0234809Y0074250D01*
X0234871Y0074188D01*
X0234931Y0074122D01*
X0234987Y0074055D01*
X0235041Y0073984D01*
X0235091Y0073912D01*
X0235138Y0073837D01*
X0235182Y0073760D01*
X0235222Y0073681D01*
X0235259Y0073601D01*
X0235291Y0073519D01*
X0235321Y0073435D01*
X0235346Y0073351D01*
X0235368Y0073265D01*
X0235385Y0073179D01*
X0235399Y0073091D01*
X0235409Y0073003D01*
X0235415Y0072915D01*
X0235417Y0072827D01*
X0235415Y0072739D01*
X0235409Y0072651D01*
X0235399Y0072563D01*
X0235385Y0072475D01*
X0235368Y0072389D01*
X0235346Y0072303D01*
X0235321Y0072219D01*
X0235291Y0072135D01*
X0235259Y0072053D01*
X0235222Y0071973D01*
X0235182Y0071894D01*
X0235138Y0071817D01*
X0235091Y0071742D01*
X0235041Y0071670D01*
X0234987Y0071599D01*
X0234931Y0071532D01*
X0234871Y0071466D01*
X0234809Y0071404D01*
X0234743Y0071344D01*
X0234676Y0071288D01*
X0234605Y0071234D01*
X0234533Y0071184D01*
X0234458Y0071137D01*
X0234381Y0071093D01*
X0234302Y0071053D01*
X0234222Y0071016D01*
X0234140Y0070984D01*
X0234056Y0070954D01*
X0233972Y0070929D01*
X0233886Y0070907D01*
X0233800Y0070890D01*
X0233712Y0070876D01*
X0233624Y0070866D01*
X0233536Y0070860D01*
X0233448Y0070858D01*
X0233360Y0070860D01*
X0233272Y0070866D01*
X0233184Y0070876D01*
X0233096Y0070890D01*
X0233010Y0070907D01*
X0232924Y0070929D01*
X0232840Y0070954D01*
X0232756Y0070984D01*
X0232674Y0071016D01*
X0232594Y0071053D01*
X0232515Y0071093D01*
X0232438Y0071137D01*
X0232363Y0071184D01*
X0232291Y0071234D01*
X0232220Y0071288D01*
X0232153Y0071344D01*
X0232087Y0071404D01*
X0232025Y0071466D01*
X0231965Y0071532D01*
X0231909Y0071599D01*
X0231855Y0071670D01*
X0231805Y0071742D01*
X0231758Y0071817D01*
X0231714Y0071894D01*
X0231674Y0071973D01*
X0231637Y0072053D01*
X0231605Y0072135D01*
X0231575Y0072219D01*
X0231550Y0072303D01*
X0231528Y0072389D01*
X0231511Y0072475D01*
X0231497Y0072563D01*
X0231487Y0072651D01*
X0231481Y0072739D01*
X0231479Y0072827D01*
X0241321Y0072827D02*
X0241323Y0072915D01*
X0241329Y0073003D01*
X0241339Y0073091D01*
X0241353Y0073179D01*
X0241370Y0073265D01*
X0241392Y0073351D01*
X0241417Y0073435D01*
X0241447Y0073519D01*
X0241479Y0073601D01*
X0241516Y0073681D01*
X0241556Y0073760D01*
X0241600Y0073837D01*
X0241647Y0073912D01*
X0241697Y0073984D01*
X0241751Y0074055D01*
X0241807Y0074122D01*
X0241867Y0074188D01*
X0241929Y0074250D01*
X0241995Y0074310D01*
X0242062Y0074366D01*
X0242133Y0074420D01*
X0242205Y0074470D01*
X0242280Y0074517D01*
X0242357Y0074561D01*
X0242436Y0074601D01*
X0242516Y0074638D01*
X0242598Y0074670D01*
X0242682Y0074700D01*
X0242766Y0074725D01*
X0242852Y0074747D01*
X0242938Y0074764D01*
X0243026Y0074778D01*
X0243114Y0074788D01*
X0243202Y0074794D01*
X0243290Y0074796D01*
X0243378Y0074794D01*
X0243466Y0074788D01*
X0243554Y0074778D01*
X0243642Y0074764D01*
X0243728Y0074747D01*
X0243814Y0074725D01*
X0243898Y0074700D01*
X0243982Y0074670D01*
X0244064Y0074638D01*
X0244144Y0074601D01*
X0244223Y0074561D01*
X0244300Y0074517D01*
X0244375Y0074470D01*
X0244447Y0074420D01*
X0244518Y0074366D01*
X0244585Y0074310D01*
X0244651Y0074250D01*
X0244713Y0074188D01*
X0244773Y0074122D01*
X0244829Y0074055D01*
X0244883Y0073984D01*
X0244933Y0073912D01*
X0244980Y0073837D01*
X0245024Y0073760D01*
X0245064Y0073681D01*
X0245101Y0073601D01*
X0245133Y0073519D01*
X0245163Y0073435D01*
X0245188Y0073351D01*
X0245210Y0073265D01*
X0245227Y0073179D01*
X0245241Y0073091D01*
X0245251Y0073003D01*
X0245257Y0072915D01*
X0245259Y0072827D01*
X0245257Y0072739D01*
X0245251Y0072651D01*
X0245241Y0072563D01*
X0245227Y0072475D01*
X0245210Y0072389D01*
X0245188Y0072303D01*
X0245163Y0072219D01*
X0245133Y0072135D01*
X0245101Y0072053D01*
X0245064Y0071973D01*
X0245024Y0071894D01*
X0244980Y0071817D01*
X0244933Y0071742D01*
X0244883Y0071670D01*
X0244829Y0071599D01*
X0244773Y0071532D01*
X0244713Y0071466D01*
X0244651Y0071404D01*
X0244585Y0071344D01*
X0244518Y0071288D01*
X0244447Y0071234D01*
X0244375Y0071184D01*
X0244300Y0071137D01*
X0244223Y0071093D01*
X0244144Y0071053D01*
X0244064Y0071016D01*
X0243982Y0070984D01*
X0243898Y0070954D01*
X0243814Y0070929D01*
X0243728Y0070907D01*
X0243642Y0070890D01*
X0243554Y0070876D01*
X0243466Y0070866D01*
X0243378Y0070860D01*
X0243290Y0070858D01*
X0243202Y0070860D01*
X0243114Y0070866D01*
X0243026Y0070876D01*
X0242938Y0070890D01*
X0242852Y0070907D01*
X0242766Y0070929D01*
X0242682Y0070954D01*
X0242598Y0070984D01*
X0242516Y0071016D01*
X0242436Y0071053D01*
X0242357Y0071093D01*
X0242280Y0071137D01*
X0242205Y0071184D01*
X0242133Y0071234D01*
X0242062Y0071288D01*
X0241995Y0071344D01*
X0241929Y0071404D01*
X0241867Y0071466D01*
X0241807Y0071532D01*
X0241751Y0071599D01*
X0241697Y0071670D01*
X0241647Y0071742D01*
X0241600Y0071817D01*
X0241556Y0071894D01*
X0241516Y0071973D01*
X0241479Y0072053D01*
X0241447Y0072135D01*
X0241417Y0072219D01*
X0241392Y0072303D01*
X0241370Y0072389D01*
X0241353Y0072475D01*
X0241339Y0072563D01*
X0241329Y0072651D01*
X0241323Y0072739D01*
X0241321Y0072827D01*
X0251164Y0072827D02*
X0251166Y0072915D01*
X0251172Y0073003D01*
X0251182Y0073091D01*
X0251196Y0073179D01*
X0251213Y0073265D01*
X0251235Y0073351D01*
X0251260Y0073435D01*
X0251290Y0073519D01*
X0251322Y0073601D01*
X0251359Y0073681D01*
X0251399Y0073760D01*
X0251443Y0073837D01*
X0251490Y0073912D01*
X0251540Y0073984D01*
X0251594Y0074055D01*
X0251650Y0074122D01*
X0251710Y0074188D01*
X0251772Y0074250D01*
X0251838Y0074310D01*
X0251905Y0074366D01*
X0251976Y0074420D01*
X0252048Y0074470D01*
X0252123Y0074517D01*
X0252200Y0074561D01*
X0252279Y0074601D01*
X0252359Y0074638D01*
X0252441Y0074670D01*
X0252525Y0074700D01*
X0252609Y0074725D01*
X0252695Y0074747D01*
X0252781Y0074764D01*
X0252869Y0074778D01*
X0252957Y0074788D01*
X0253045Y0074794D01*
X0253133Y0074796D01*
X0253221Y0074794D01*
X0253309Y0074788D01*
X0253397Y0074778D01*
X0253485Y0074764D01*
X0253571Y0074747D01*
X0253657Y0074725D01*
X0253741Y0074700D01*
X0253825Y0074670D01*
X0253907Y0074638D01*
X0253987Y0074601D01*
X0254066Y0074561D01*
X0254143Y0074517D01*
X0254218Y0074470D01*
X0254290Y0074420D01*
X0254361Y0074366D01*
X0254428Y0074310D01*
X0254494Y0074250D01*
X0254556Y0074188D01*
X0254616Y0074122D01*
X0254672Y0074055D01*
X0254726Y0073984D01*
X0254776Y0073912D01*
X0254823Y0073837D01*
X0254867Y0073760D01*
X0254907Y0073681D01*
X0254944Y0073601D01*
X0254976Y0073519D01*
X0255006Y0073435D01*
X0255031Y0073351D01*
X0255053Y0073265D01*
X0255070Y0073179D01*
X0255084Y0073091D01*
X0255094Y0073003D01*
X0255100Y0072915D01*
X0255102Y0072827D01*
X0255100Y0072739D01*
X0255094Y0072651D01*
X0255084Y0072563D01*
X0255070Y0072475D01*
X0255053Y0072389D01*
X0255031Y0072303D01*
X0255006Y0072219D01*
X0254976Y0072135D01*
X0254944Y0072053D01*
X0254907Y0071973D01*
X0254867Y0071894D01*
X0254823Y0071817D01*
X0254776Y0071742D01*
X0254726Y0071670D01*
X0254672Y0071599D01*
X0254616Y0071532D01*
X0254556Y0071466D01*
X0254494Y0071404D01*
X0254428Y0071344D01*
X0254361Y0071288D01*
X0254290Y0071234D01*
X0254218Y0071184D01*
X0254143Y0071137D01*
X0254066Y0071093D01*
X0253987Y0071053D01*
X0253907Y0071016D01*
X0253825Y0070984D01*
X0253741Y0070954D01*
X0253657Y0070929D01*
X0253571Y0070907D01*
X0253485Y0070890D01*
X0253397Y0070876D01*
X0253309Y0070866D01*
X0253221Y0070860D01*
X0253133Y0070858D01*
X0253045Y0070860D01*
X0252957Y0070866D01*
X0252869Y0070876D01*
X0252781Y0070890D01*
X0252695Y0070907D01*
X0252609Y0070929D01*
X0252525Y0070954D01*
X0252441Y0070984D01*
X0252359Y0071016D01*
X0252279Y0071053D01*
X0252200Y0071093D01*
X0252123Y0071137D01*
X0252048Y0071184D01*
X0251976Y0071234D01*
X0251905Y0071288D01*
X0251838Y0071344D01*
X0251772Y0071404D01*
X0251710Y0071466D01*
X0251650Y0071532D01*
X0251594Y0071599D01*
X0251540Y0071670D01*
X0251490Y0071742D01*
X0251443Y0071817D01*
X0251399Y0071894D01*
X0251359Y0071973D01*
X0251322Y0072053D01*
X0251290Y0072135D01*
X0251260Y0072219D01*
X0251235Y0072303D01*
X0251213Y0072389D01*
X0251196Y0072475D01*
X0251182Y0072563D01*
X0251172Y0072651D01*
X0251166Y0072739D01*
X0251164Y0072827D01*
X0261006Y0072827D02*
X0261008Y0072915D01*
X0261014Y0073003D01*
X0261024Y0073091D01*
X0261038Y0073179D01*
X0261055Y0073265D01*
X0261077Y0073351D01*
X0261102Y0073435D01*
X0261132Y0073519D01*
X0261164Y0073601D01*
X0261201Y0073681D01*
X0261241Y0073760D01*
X0261285Y0073837D01*
X0261332Y0073912D01*
X0261382Y0073984D01*
X0261436Y0074055D01*
X0261492Y0074122D01*
X0261552Y0074188D01*
X0261614Y0074250D01*
X0261680Y0074310D01*
X0261747Y0074366D01*
X0261818Y0074420D01*
X0261890Y0074470D01*
X0261965Y0074517D01*
X0262042Y0074561D01*
X0262121Y0074601D01*
X0262201Y0074638D01*
X0262283Y0074670D01*
X0262367Y0074700D01*
X0262451Y0074725D01*
X0262537Y0074747D01*
X0262623Y0074764D01*
X0262711Y0074778D01*
X0262799Y0074788D01*
X0262887Y0074794D01*
X0262975Y0074796D01*
X0263063Y0074794D01*
X0263151Y0074788D01*
X0263239Y0074778D01*
X0263327Y0074764D01*
X0263413Y0074747D01*
X0263499Y0074725D01*
X0263583Y0074700D01*
X0263667Y0074670D01*
X0263749Y0074638D01*
X0263829Y0074601D01*
X0263908Y0074561D01*
X0263985Y0074517D01*
X0264060Y0074470D01*
X0264132Y0074420D01*
X0264203Y0074366D01*
X0264270Y0074310D01*
X0264336Y0074250D01*
X0264398Y0074188D01*
X0264458Y0074122D01*
X0264514Y0074055D01*
X0264568Y0073984D01*
X0264618Y0073912D01*
X0264665Y0073837D01*
X0264709Y0073760D01*
X0264749Y0073681D01*
X0264786Y0073601D01*
X0264818Y0073519D01*
X0264848Y0073435D01*
X0264873Y0073351D01*
X0264895Y0073265D01*
X0264912Y0073179D01*
X0264926Y0073091D01*
X0264936Y0073003D01*
X0264942Y0072915D01*
X0264944Y0072827D01*
X0264942Y0072739D01*
X0264936Y0072651D01*
X0264926Y0072563D01*
X0264912Y0072475D01*
X0264895Y0072389D01*
X0264873Y0072303D01*
X0264848Y0072219D01*
X0264818Y0072135D01*
X0264786Y0072053D01*
X0264749Y0071973D01*
X0264709Y0071894D01*
X0264665Y0071817D01*
X0264618Y0071742D01*
X0264568Y0071670D01*
X0264514Y0071599D01*
X0264458Y0071532D01*
X0264398Y0071466D01*
X0264336Y0071404D01*
X0264270Y0071344D01*
X0264203Y0071288D01*
X0264132Y0071234D01*
X0264060Y0071184D01*
X0263985Y0071137D01*
X0263908Y0071093D01*
X0263829Y0071053D01*
X0263749Y0071016D01*
X0263667Y0070984D01*
X0263583Y0070954D01*
X0263499Y0070929D01*
X0263413Y0070907D01*
X0263327Y0070890D01*
X0263239Y0070876D01*
X0263151Y0070866D01*
X0263063Y0070860D01*
X0262975Y0070858D01*
X0262887Y0070860D01*
X0262799Y0070866D01*
X0262711Y0070876D01*
X0262623Y0070890D01*
X0262537Y0070907D01*
X0262451Y0070929D01*
X0262367Y0070954D01*
X0262283Y0070984D01*
X0262201Y0071016D01*
X0262121Y0071053D01*
X0262042Y0071093D01*
X0261965Y0071137D01*
X0261890Y0071184D01*
X0261818Y0071234D01*
X0261747Y0071288D01*
X0261680Y0071344D01*
X0261614Y0071404D01*
X0261552Y0071466D01*
X0261492Y0071532D01*
X0261436Y0071599D01*
X0261382Y0071670D01*
X0261332Y0071742D01*
X0261285Y0071817D01*
X0261241Y0071894D01*
X0261201Y0071973D01*
X0261164Y0072053D01*
X0261132Y0072135D01*
X0261102Y0072219D01*
X0261077Y0072303D01*
X0261055Y0072389D01*
X0261038Y0072475D01*
X0261024Y0072563D01*
X0261014Y0072651D01*
X0261008Y0072739D01*
X0261006Y0072827D01*
X0320061Y0072827D02*
X0320063Y0072915D01*
X0320069Y0073003D01*
X0320079Y0073091D01*
X0320093Y0073179D01*
X0320110Y0073265D01*
X0320132Y0073351D01*
X0320157Y0073435D01*
X0320187Y0073519D01*
X0320219Y0073601D01*
X0320256Y0073681D01*
X0320296Y0073760D01*
X0320340Y0073837D01*
X0320387Y0073912D01*
X0320437Y0073984D01*
X0320491Y0074055D01*
X0320547Y0074122D01*
X0320607Y0074188D01*
X0320669Y0074250D01*
X0320735Y0074310D01*
X0320802Y0074366D01*
X0320873Y0074420D01*
X0320945Y0074470D01*
X0321020Y0074517D01*
X0321097Y0074561D01*
X0321176Y0074601D01*
X0321256Y0074638D01*
X0321338Y0074670D01*
X0321422Y0074700D01*
X0321506Y0074725D01*
X0321592Y0074747D01*
X0321678Y0074764D01*
X0321766Y0074778D01*
X0321854Y0074788D01*
X0321942Y0074794D01*
X0322030Y0074796D01*
X0322118Y0074794D01*
X0322206Y0074788D01*
X0322294Y0074778D01*
X0322382Y0074764D01*
X0322468Y0074747D01*
X0322554Y0074725D01*
X0322638Y0074700D01*
X0322722Y0074670D01*
X0322804Y0074638D01*
X0322884Y0074601D01*
X0322963Y0074561D01*
X0323040Y0074517D01*
X0323115Y0074470D01*
X0323187Y0074420D01*
X0323258Y0074366D01*
X0323325Y0074310D01*
X0323391Y0074250D01*
X0323453Y0074188D01*
X0323513Y0074122D01*
X0323569Y0074055D01*
X0323623Y0073984D01*
X0323673Y0073912D01*
X0323720Y0073837D01*
X0323764Y0073760D01*
X0323804Y0073681D01*
X0323841Y0073601D01*
X0323873Y0073519D01*
X0323903Y0073435D01*
X0323928Y0073351D01*
X0323950Y0073265D01*
X0323967Y0073179D01*
X0323981Y0073091D01*
X0323991Y0073003D01*
X0323997Y0072915D01*
X0323999Y0072827D01*
X0323997Y0072739D01*
X0323991Y0072651D01*
X0323981Y0072563D01*
X0323967Y0072475D01*
X0323950Y0072389D01*
X0323928Y0072303D01*
X0323903Y0072219D01*
X0323873Y0072135D01*
X0323841Y0072053D01*
X0323804Y0071973D01*
X0323764Y0071894D01*
X0323720Y0071817D01*
X0323673Y0071742D01*
X0323623Y0071670D01*
X0323569Y0071599D01*
X0323513Y0071532D01*
X0323453Y0071466D01*
X0323391Y0071404D01*
X0323325Y0071344D01*
X0323258Y0071288D01*
X0323187Y0071234D01*
X0323115Y0071184D01*
X0323040Y0071137D01*
X0322963Y0071093D01*
X0322884Y0071053D01*
X0322804Y0071016D01*
X0322722Y0070984D01*
X0322638Y0070954D01*
X0322554Y0070929D01*
X0322468Y0070907D01*
X0322382Y0070890D01*
X0322294Y0070876D01*
X0322206Y0070866D01*
X0322118Y0070860D01*
X0322030Y0070858D01*
X0321942Y0070860D01*
X0321854Y0070866D01*
X0321766Y0070876D01*
X0321678Y0070890D01*
X0321592Y0070907D01*
X0321506Y0070929D01*
X0321422Y0070954D01*
X0321338Y0070984D01*
X0321256Y0071016D01*
X0321176Y0071053D01*
X0321097Y0071093D01*
X0321020Y0071137D01*
X0320945Y0071184D01*
X0320873Y0071234D01*
X0320802Y0071288D01*
X0320735Y0071344D01*
X0320669Y0071404D01*
X0320607Y0071466D01*
X0320547Y0071532D01*
X0320491Y0071599D01*
X0320437Y0071670D01*
X0320387Y0071742D01*
X0320340Y0071817D01*
X0320296Y0071894D01*
X0320256Y0071973D01*
X0320219Y0072053D01*
X0320187Y0072135D01*
X0320157Y0072219D01*
X0320132Y0072303D01*
X0320110Y0072389D01*
X0320093Y0072475D01*
X0320079Y0072563D01*
X0320069Y0072651D01*
X0320063Y0072739D01*
X0320061Y0072827D01*
X0320061Y0101173D02*
X0320063Y0101261D01*
X0320069Y0101349D01*
X0320079Y0101437D01*
X0320093Y0101525D01*
X0320110Y0101611D01*
X0320132Y0101697D01*
X0320157Y0101781D01*
X0320187Y0101865D01*
X0320219Y0101947D01*
X0320256Y0102027D01*
X0320296Y0102106D01*
X0320340Y0102183D01*
X0320387Y0102258D01*
X0320437Y0102330D01*
X0320491Y0102401D01*
X0320547Y0102468D01*
X0320607Y0102534D01*
X0320669Y0102596D01*
X0320735Y0102656D01*
X0320802Y0102712D01*
X0320873Y0102766D01*
X0320945Y0102816D01*
X0321020Y0102863D01*
X0321097Y0102907D01*
X0321176Y0102947D01*
X0321256Y0102984D01*
X0321338Y0103016D01*
X0321422Y0103046D01*
X0321506Y0103071D01*
X0321592Y0103093D01*
X0321678Y0103110D01*
X0321766Y0103124D01*
X0321854Y0103134D01*
X0321942Y0103140D01*
X0322030Y0103142D01*
X0322118Y0103140D01*
X0322206Y0103134D01*
X0322294Y0103124D01*
X0322382Y0103110D01*
X0322468Y0103093D01*
X0322554Y0103071D01*
X0322638Y0103046D01*
X0322722Y0103016D01*
X0322804Y0102984D01*
X0322884Y0102947D01*
X0322963Y0102907D01*
X0323040Y0102863D01*
X0323115Y0102816D01*
X0323187Y0102766D01*
X0323258Y0102712D01*
X0323325Y0102656D01*
X0323391Y0102596D01*
X0323453Y0102534D01*
X0323513Y0102468D01*
X0323569Y0102401D01*
X0323623Y0102330D01*
X0323673Y0102258D01*
X0323720Y0102183D01*
X0323764Y0102106D01*
X0323804Y0102027D01*
X0323841Y0101947D01*
X0323873Y0101865D01*
X0323903Y0101781D01*
X0323928Y0101697D01*
X0323950Y0101611D01*
X0323967Y0101525D01*
X0323981Y0101437D01*
X0323991Y0101349D01*
X0323997Y0101261D01*
X0323999Y0101173D01*
X0323997Y0101085D01*
X0323991Y0100997D01*
X0323981Y0100909D01*
X0323967Y0100821D01*
X0323950Y0100735D01*
X0323928Y0100649D01*
X0323903Y0100565D01*
X0323873Y0100481D01*
X0323841Y0100399D01*
X0323804Y0100319D01*
X0323764Y0100240D01*
X0323720Y0100163D01*
X0323673Y0100088D01*
X0323623Y0100016D01*
X0323569Y0099945D01*
X0323513Y0099878D01*
X0323453Y0099812D01*
X0323391Y0099750D01*
X0323325Y0099690D01*
X0323258Y0099634D01*
X0323187Y0099580D01*
X0323115Y0099530D01*
X0323040Y0099483D01*
X0322963Y0099439D01*
X0322884Y0099399D01*
X0322804Y0099362D01*
X0322722Y0099330D01*
X0322638Y0099300D01*
X0322554Y0099275D01*
X0322468Y0099253D01*
X0322382Y0099236D01*
X0322294Y0099222D01*
X0322206Y0099212D01*
X0322118Y0099206D01*
X0322030Y0099204D01*
X0321942Y0099206D01*
X0321854Y0099212D01*
X0321766Y0099222D01*
X0321678Y0099236D01*
X0321592Y0099253D01*
X0321506Y0099275D01*
X0321422Y0099300D01*
X0321338Y0099330D01*
X0321256Y0099362D01*
X0321176Y0099399D01*
X0321097Y0099439D01*
X0321020Y0099483D01*
X0320945Y0099530D01*
X0320873Y0099580D01*
X0320802Y0099634D01*
X0320735Y0099690D01*
X0320669Y0099750D01*
X0320607Y0099812D01*
X0320547Y0099878D01*
X0320491Y0099945D01*
X0320437Y0100016D01*
X0320387Y0100088D01*
X0320340Y0100163D01*
X0320296Y0100240D01*
X0320256Y0100319D01*
X0320219Y0100399D01*
X0320187Y0100481D01*
X0320157Y0100565D01*
X0320132Y0100649D01*
X0320110Y0100735D01*
X0320093Y0100821D01*
X0320079Y0100909D01*
X0320069Y0100997D01*
X0320063Y0101085D01*
X0320061Y0101173D01*
X0329904Y0101173D02*
X0329906Y0101261D01*
X0329912Y0101349D01*
X0329922Y0101437D01*
X0329936Y0101525D01*
X0329953Y0101611D01*
X0329975Y0101697D01*
X0330000Y0101781D01*
X0330030Y0101865D01*
X0330062Y0101947D01*
X0330099Y0102027D01*
X0330139Y0102106D01*
X0330183Y0102183D01*
X0330230Y0102258D01*
X0330280Y0102330D01*
X0330334Y0102401D01*
X0330390Y0102468D01*
X0330450Y0102534D01*
X0330512Y0102596D01*
X0330578Y0102656D01*
X0330645Y0102712D01*
X0330716Y0102766D01*
X0330788Y0102816D01*
X0330863Y0102863D01*
X0330940Y0102907D01*
X0331019Y0102947D01*
X0331099Y0102984D01*
X0331181Y0103016D01*
X0331265Y0103046D01*
X0331349Y0103071D01*
X0331435Y0103093D01*
X0331521Y0103110D01*
X0331609Y0103124D01*
X0331697Y0103134D01*
X0331785Y0103140D01*
X0331873Y0103142D01*
X0331961Y0103140D01*
X0332049Y0103134D01*
X0332137Y0103124D01*
X0332225Y0103110D01*
X0332311Y0103093D01*
X0332397Y0103071D01*
X0332481Y0103046D01*
X0332565Y0103016D01*
X0332647Y0102984D01*
X0332727Y0102947D01*
X0332806Y0102907D01*
X0332883Y0102863D01*
X0332958Y0102816D01*
X0333030Y0102766D01*
X0333101Y0102712D01*
X0333168Y0102656D01*
X0333234Y0102596D01*
X0333296Y0102534D01*
X0333356Y0102468D01*
X0333412Y0102401D01*
X0333466Y0102330D01*
X0333516Y0102258D01*
X0333563Y0102183D01*
X0333607Y0102106D01*
X0333647Y0102027D01*
X0333684Y0101947D01*
X0333716Y0101865D01*
X0333746Y0101781D01*
X0333771Y0101697D01*
X0333793Y0101611D01*
X0333810Y0101525D01*
X0333824Y0101437D01*
X0333834Y0101349D01*
X0333840Y0101261D01*
X0333842Y0101173D01*
X0333840Y0101085D01*
X0333834Y0100997D01*
X0333824Y0100909D01*
X0333810Y0100821D01*
X0333793Y0100735D01*
X0333771Y0100649D01*
X0333746Y0100565D01*
X0333716Y0100481D01*
X0333684Y0100399D01*
X0333647Y0100319D01*
X0333607Y0100240D01*
X0333563Y0100163D01*
X0333516Y0100088D01*
X0333466Y0100016D01*
X0333412Y0099945D01*
X0333356Y0099878D01*
X0333296Y0099812D01*
X0333234Y0099750D01*
X0333168Y0099690D01*
X0333101Y0099634D01*
X0333030Y0099580D01*
X0332958Y0099530D01*
X0332883Y0099483D01*
X0332806Y0099439D01*
X0332727Y0099399D01*
X0332647Y0099362D01*
X0332565Y0099330D01*
X0332481Y0099300D01*
X0332397Y0099275D01*
X0332311Y0099253D01*
X0332225Y0099236D01*
X0332137Y0099222D01*
X0332049Y0099212D01*
X0331961Y0099206D01*
X0331873Y0099204D01*
X0331785Y0099206D01*
X0331697Y0099212D01*
X0331609Y0099222D01*
X0331521Y0099236D01*
X0331435Y0099253D01*
X0331349Y0099275D01*
X0331265Y0099300D01*
X0331181Y0099330D01*
X0331099Y0099362D01*
X0331019Y0099399D01*
X0330940Y0099439D01*
X0330863Y0099483D01*
X0330788Y0099530D01*
X0330716Y0099580D01*
X0330645Y0099634D01*
X0330578Y0099690D01*
X0330512Y0099750D01*
X0330450Y0099812D01*
X0330390Y0099878D01*
X0330334Y0099945D01*
X0330280Y0100016D01*
X0330230Y0100088D01*
X0330183Y0100163D01*
X0330139Y0100240D01*
X0330099Y0100319D01*
X0330062Y0100399D01*
X0330030Y0100481D01*
X0330000Y0100565D01*
X0329975Y0100649D01*
X0329953Y0100735D01*
X0329936Y0100821D01*
X0329922Y0100909D01*
X0329912Y0100997D01*
X0329906Y0101085D01*
X0329904Y0101173D01*
X0300376Y0101173D02*
X0300378Y0101261D01*
X0300384Y0101349D01*
X0300394Y0101437D01*
X0300408Y0101525D01*
X0300425Y0101611D01*
X0300447Y0101697D01*
X0300472Y0101781D01*
X0300502Y0101865D01*
X0300534Y0101947D01*
X0300571Y0102027D01*
X0300611Y0102106D01*
X0300655Y0102183D01*
X0300702Y0102258D01*
X0300752Y0102330D01*
X0300806Y0102401D01*
X0300862Y0102468D01*
X0300922Y0102534D01*
X0300984Y0102596D01*
X0301050Y0102656D01*
X0301117Y0102712D01*
X0301188Y0102766D01*
X0301260Y0102816D01*
X0301335Y0102863D01*
X0301412Y0102907D01*
X0301491Y0102947D01*
X0301571Y0102984D01*
X0301653Y0103016D01*
X0301737Y0103046D01*
X0301821Y0103071D01*
X0301907Y0103093D01*
X0301993Y0103110D01*
X0302081Y0103124D01*
X0302169Y0103134D01*
X0302257Y0103140D01*
X0302345Y0103142D01*
X0302433Y0103140D01*
X0302521Y0103134D01*
X0302609Y0103124D01*
X0302697Y0103110D01*
X0302783Y0103093D01*
X0302869Y0103071D01*
X0302953Y0103046D01*
X0303037Y0103016D01*
X0303119Y0102984D01*
X0303199Y0102947D01*
X0303278Y0102907D01*
X0303355Y0102863D01*
X0303430Y0102816D01*
X0303502Y0102766D01*
X0303573Y0102712D01*
X0303640Y0102656D01*
X0303706Y0102596D01*
X0303768Y0102534D01*
X0303828Y0102468D01*
X0303884Y0102401D01*
X0303938Y0102330D01*
X0303988Y0102258D01*
X0304035Y0102183D01*
X0304079Y0102106D01*
X0304119Y0102027D01*
X0304156Y0101947D01*
X0304188Y0101865D01*
X0304218Y0101781D01*
X0304243Y0101697D01*
X0304265Y0101611D01*
X0304282Y0101525D01*
X0304296Y0101437D01*
X0304306Y0101349D01*
X0304312Y0101261D01*
X0304314Y0101173D01*
X0304312Y0101085D01*
X0304306Y0100997D01*
X0304296Y0100909D01*
X0304282Y0100821D01*
X0304265Y0100735D01*
X0304243Y0100649D01*
X0304218Y0100565D01*
X0304188Y0100481D01*
X0304156Y0100399D01*
X0304119Y0100319D01*
X0304079Y0100240D01*
X0304035Y0100163D01*
X0303988Y0100088D01*
X0303938Y0100016D01*
X0303884Y0099945D01*
X0303828Y0099878D01*
X0303768Y0099812D01*
X0303706Y0099750D01*
X0303640Y0099690D01*
X0303573Y0099634D01*
X0303502Y0099580D01*
X0303430Y0099530D01*
X0303355Y0099483D01*
X0303278Y0099439D01*
X0303199Y0099399D01*
X0303119Y0099362D01*
X0303037Y0099330D01*
X0302953Y0099300D01*
X0302869Y0099275D01*
X0302783Y0099253D01*
X0302697Y0099236D01*
X0302609Y0099222D01*
X0302521Y0099212D01*
X0302433Y0099206D01*
X0302345Y0099204D01*
X0302257Y0099206D01*
X0302169Y0099212D01*
X0302081Y0099222D01*
X0301993Y0099236D01*
X0301907Y0099253D01*
X0301821Y0099275D01*
X0301737Y0099300D01*
X0301653Y0099330D01*
X0301571Y0099362D01*
X0301491Y0099399D01*
X0301412Y0099439D01*
X0301335Y0099483D01*
X0301260Y0099530D01*
X0301188Y0099580D01*
X0301117Y0099634D01*
X0301050Y0099690D01*
X0300984Y0099750D01*
X0300922Y0099812D01*
X0300862Y0099878D01*
X0300806Y0099945D01*
X0300752Y0100016D01*
X0300702Y0100088D01*
X0300655Y0100163D01*
X0300611Y0100240D01*
X0300571Y0100319D01*
X0300534Y0100399D01*
X0300502Y0100481D01*
X0300472Y0100565D01*
X0300447Y0100649D01*
X0300425Y0100735D01*
X0300408Y0100821D01*
X0300394Y0100909D01*
X0300384Y0100997D01*
X0300378Y0101085D01*
X0300376Y0101173D01*
X0261006Y0101173D02*
X0261008Y0101261D01*
X0261014Y0101349D01*
X0261024Y0101437D01*
X0261038Y0101525D01*
X0261055Y0101611D01*
X0261077Y0101697D01*
X0261102Y0101781D01*
X0261132Y0101865D01*
X0261164Y0101947D01*
X0261201Y0102027D01*
X0261241Y0102106D01*
X0261285Y0102183D01*
X0261332Y0102258D01*
X0261382Y0102330D01*
X0261436Y0102401D01*
X0261492Y0102468D01*
X0261552Y0102534D01*
X0261614Y0102596D01*
X0261680Y0102656D01*
X0261747Y0102712D01*
X0261818Y0102766D01*
X0261890Y0102816D01*
X0261965Y0102863D01*
X0262042Y0102907D01*
X0262121Y0102947D01*
X0262201Y0102984D01*
X0262283Y0103016D01*
X0262367Y0103046D01*
X0262451Y0103071D01*
X0262537Y0103093D01*
X0262623Y0103110D01*
X0262711Y0103124D01*
X0262799Y0103134D01*
X0262887Y0103140D01*
X0262975Y0103142D01*
X0263063Y0103140D01*
X0263151Y0103134D01*
X0263239Y0103124D01*
X0263327Y0103110D01*
X0263413Y0103093D01*
X0263499Y0103071D01*
X0263583Y0103046D01*
X0263667Y0103016D01*
X0263749Y0102984D01*
X0263829Y0102947D01*
X0263908Y0102907D01*
X0263985Y0102863D01*
X0264060Y0102816D01*
X0264132Y0102766D01*
X0264203Y0102712D01*
X0264270Y0102656D01*
X0264336Y0102596D01*
X0264398Y0102534D01*
X0264458Y0102468D01*
X0264514Y0102401D01*
X0264568Y0102330D01*
X0264618Y0102258D01*
X0264665Y0102183D01*
X0264709Y0102106D01*
X0264749Y0102027D01*
X0264786Y0101947D01*
X0264818Y0101865D01*
X0264848Y0101781D01*
X0264873Y0101697D01*
X0264895Y0101611D01*
X0264912Y0101525D01*
X0264926Y0101437D01*
X0264936Y0101349D01*
X0264942Y0101261D01*
X0264944Y0101173D01*
X0264942Y0101085D01*
X0264936Y0100997D01*
X0264926Y0100909D01*
X0264912Y0100821D01*
X0264895Y0100735D01*
X0264873Y0100649D01*
X0264848Y0100565D01*
X0264818Y0100481D01*
X0264786Y0100399D01*
X0264749Y0100319D01*
X0264709Y0100240D01*
X0264665Y0100163D01*
X0264618Y0100088D01*
X0264568Y0100016D01*
X0264514Y0099945D01*
X0264458Y0099878D01*
X0264398Y0099812D01*
X0264336Y0099750D01*
X0264270Y0099690D01*
X0264203Y0099634D01*
X0264132Y0099580D01*
X0264060Y0099530D01*
X0263985Y0099483D01*
X0263908Y0099439D01*
X0263829Y0099399D01*
X0263749Y0099362D01*
X0263667Y0099330D01*
X0263583Y0099300D01*
X0263499Y0099275D01*
X0263413Y0099253D01*
X0263327Y0099236D01*
X0263239Y0099222D01*
X0263151Y0099212D01*
X0263063Y0099206D01*
X0262975Y0099204D01*
X0262887Y0099206D01*
X0262799Y0099212D01*
X0262711Y0099222D01*
X0262623Y0099236D01*
X0262537Y0099253D01*
X0262451Y0099275D01*
X0262367Y0099300D01*
X0262283Y0099330D01*
X0262201Y0099362D01*
X0262121Y0099399D01*
X0262042Y0099439D01*
X0261965Y0099483D01*
X0261890Y0099530D01*
X0261818Y0099580D01*
X0261747Y0099634D01*
X0261680Y0099690D01*
X0261614Y0099750D01*
X0261552Y0099812D01*
X0261492Y0099878D01*
X0261436Y0099945D01*
X0261382Y0100016D01*
X0261332Y0100088D01*
X0261285Y0100163D01*
X0261241Y0100240D01*
X0261201Y0100319D01*
X0261164Y0100399D01*
X0261132Y0100481D01*
X0261102Y0100565D01*
X0261077Y0100649D01*
X0261055Y0100735D01*
X0261038Y0100821D01*
X0261024Y0100909D01*
X0261014Y0100997D01*
X0261008Y0101085D01*
X0261006Y0101173D01*
X0251164Y0101173D02*
X0251166Y0101261D01*
X0251172Y0101349D01*
X0251182Y0101437D01*
X0251196Y0101525D01*
X0251213Y0101611D01*
X0251235Y0101697D01*
X0251260Y0101781D01*
X0251290Y0101865D01*
X0251322Y0101947D01*
X0251359Y0102027D01*
X0251399Y0102106D01*
X0251443Y0102183D01*
X0251490Y0102258D01*
X0251540Y0102330D01*
X0251594Y0102401D01*
X0251650Y0102468D01*
X0251710Y0102534D01*
X0251772Y0102596D01*
X0251838Y0102656D01*
X0251905Y0102712D01*
X0251976Y0102766D01*
X0252048Y0102816D01*
X0252123Y0102863D01*
X0252200Y0102907D01*
X0252279Y0102947D01*
X0252359Y0102984D01*
X0252441Y0103016D01*
X0252525Y0103046D01*
X0252609Y0103071D01*
X0252695Y0103093D01*
X0252781Y0103110D01*
X0252869Y0103124D01*
X0252957Y0103134D01*
X0253045Y0103140D01*
X0253133Y0103142D01*
X0253221Y0103140D01*
X0253309Y0103134D01*
X0253397Y0103124D01*
X0253485Y0103110D01*
X0253571Y0103093D01*
X0253657Y0103071D01*
X0253741Y0103046D01*
X0253825Y0103016D01*
X0253907Y0102984D01*
X0253987Y0102947D01*
X0254066Y0102907D01*
X0254143Y0102863D01*
X0254218Y0102816D01*
X0254290Y0102766D01*
X0254361Y0102712D01*
X0254428Y0102656D01*
X0254494Y0102596D01*
X0254556Y0102534D01*
X0254616Y0102468D01*
X0254672Y0102401D01*
X0254726Y0102330D01*
X0254776Y0102258D01*
X0254823Y0102183D01*
X0254867Y0102106D01*
X0254907Y0102027D01*
X0254944Y0101947D01*
X0254976Y0101865D01*
X0255006Y0101781D01*
X0255031Y0101697D01*
X0255053Y0101611D01*
X0255070Y0101525D01*
X0255084Y0101437D01*
X0255094Y0101349D01*
X0255100Y0101261D01*
X0255102Y0101173D01*
X0255100Y0101085D01*
X0255094Y0100997D01*
X0255084Y0100909D01*
X0255070Y0100821D01*
X0255053Y0100735D01*
X0255031Y0100649D01*
X0255006Y0100565D01*
X0254976Y0100481D01*
X0254944Y0100399D01*
X0254907Y0100319D01*
X0254867Y0100240D01*
X0254823Y0100163D01*
X0254776Y0100088D01*
X0254726Y0100016D01*
X0254672Y0099945D01*
X0254616Y0099878D01*
X0254556Y0099812D01*
X0254494Y0099750D01*
X0254428Y0099690D01*
X0254361Y0099634D01*
X0254290Y0099580D01*
X0254218Y0099530D01*
X0254143Y0099483D01*
X0254066Y0099439D01*
X0253987Y0099399D01*
X0253907Y0099362D01*
X0253825Y0099330D01*
X0253741Y0099300D01*
X0253657Y0099275D01*
X0253571Y0099253D01*
X0253485Y0099236D01*
X0253397Y0099222D01*
X0253309Y0099212D01*
X0253221Y0099206D01*
X0253133Y0099204D01*
X0253045Y0099206D01*
X0252957Y0099212D01*
X0252869Y0099222D01*
X0252781Y0099236D01*
X0252695Y0099253D01*
X0252609Y0099275D01*
X0252525Y0099300D01*
X0252441Y0099330D01*
X0252359Y0099362D01*
X0252279Y0099399D01*
X0252200Y0099439D01*
X0252123Y0099483D01*
X0252048Y0099530D01*
X0251976Y0099580D01*
X0251905Y0099634D01*
X0251838Y0099690D01*
X0251772Y0099750D01*
X0251710Y0099812D01*
X0251650Y0099878D01*
X0251594Y0099945D01*
X0251540Y0100016D01*
X0251490Y0100088D01*
X0251443Y0100163D01*
X0251399Y0100240D01*
X0251359Y0100319D01*
X0251322Y0100399D01*
X0251290Y0100481D01*
X0251260Y0100565D01*
X0251235Y0100649D01*
X0251213Y0100735D01*
X0251196Y0100821D01*
X0251182Y0100909D01*
X0251172Y0100997D01*
X0251166Y0101085D01*
X0251164Y0101173D01*
X0241321Y0101173D02*
X0241323Y0101261D01*
X0241329Y0101349D01*
X0241339Y0101437D01*
X0241353Y0101525D01*
X0241370Y0101611D01*
X0241392Y0101697D01*
X0241417Y0101781D01*
X0241447Y0101865D01*
X0241479Y0101947D01*
X0241516Y0102027D01*
X0241556Y0102106D01*
X0241600Y0102183D01*
X0241647Y0102258D01*
X0241697Y0102330D01*
X0241751Y0102401D01*
X0241807Y0102468D01*
X0241867Y0102534D01*
X0241929Y0102596D01*
X0241995Y0102656D01*
X0242062Y0102712D01*
X0242133Y0102766D01*
X0242205Y0102816D01*
X0242280Y0102863D01*
X0242357Y0102907D01*
X0242436Y0102947D01*
X0242516Y0102984D01*
X0242598Y0103016D01*
X0242682Y0103046D01*
X0242766Y0103071D01*
X0242852Y0103093D01*
X0242938Y0103110D01*
X0243026Y0103124D01*
X0243114Y0103134D01*
X0243202Y0103140D01*
X0243290Y0103142D01*
X0243378Y0103140D01*
X0243466Y0103134D01*
X0243554Y0103124D01*
X0243642Y0103110D01*
X0243728Y0103093D01*
X0243814Y0103071D01*
X0243898Y0103046D01*
X0243982Y0103016D01*
X0244064Y0102984D01*
X0244144Y0102947D01*
X0244223Y0102907D01*
X0244300Y0102863D01*
X0244375Y0102816D01*
X0244447Y0102766D01*
X0244518Y0102712D01*
X0244585Y0102656D01*
X0244651Y0102596D01*
X0244713Y0102534D01*
X0244773Y0102468D01*
X0244829Y0102401D01*
X0244883Y0102330D01*
X0244933Y0102258D01*
X0244980Y0102183D01*
X0245024Y0102106D01*
X0245064Y0102027D01*
X0245101Y0101947D01*
X0245133Y0101865D01*
X0245163Y0101781D01*
X0245188Y0101697D01*
X0245210Y0101611D01*
X0245227Y0101525D01*
X0245241Y0101437D01*
X0245251Y0101349D01*
X0245257Y0101261D01*
X0245259Y0101173D01*
X0245257Y0101085D01*
X0245251Y0100997D01*
X0245241Y0100909D01*
X0245227Y0100821D01*
X0245210Y0100735D01*
X0245188Y0100649D01*
X0245163Y0100565D01*
X0245133Y0100481D01*
X0245101Y0100399D01*
X0245064Y0100319D01*
X0245024Y0100240D01*
X0244980Y0100163D01*
X0244933Y0100088D01*
X0244883Y0100016D01*
X0244829Y0099945D01*
X0244773Y0099878D01*
X0244713Y0099812D01*
X0244651Y0099750D01*
X0244585Y0099690D01*
X0244518Y0099634D01*
X0244447Y0099580D01*
X0244375Y0099530D01*
X0244300Y0099483D01*
X0244223Y0099439D01*
X0244144Y0099399D01*
X0244064Y0099362D01*
X0243982Y0099330D01*
X0243898Y0099300D01*
X0243814Y0099275D01*
X0243728Y0099253D01*
X0243642Y0099236D01*
X0243554Y0099222D01*
X0243466Y0099212D01*
X0243378Y0099206D01*
X0243290Y0099204D01*
X0243202Y0099206D01*
X0243114Y0099212D01*
X0243026Y0099222D01*
X0242938Y0099236D01*
X0242852Y0099253D01*
X0242766Y0099275D01*
X0242682Y0099300D01*
X0242598Y0099330D01*
X0242516Y0099362D01*
X0242436Y0099399D01*
X0242357Y0099439D01*
X0242280Y0099483D01*
X0242205Y0099530D01*
X0242133Y0099580D01*
X0242062Y0099634D01*
X0241995Y0099690D01*
X0241929Y0099750D01*
X0241867Y0099812D01*
X0241807Y0099878D01*
X0241751Y0099945D01*
X0241697Y0100016D01*
X0241647Y0100088D01*
X0241600Y0100163D01*
X0241556Y0100240D01*
X0241516Y0100319D01*
X0241479Y0100399D01*
X0241447Y0100481D01*
X0241417Y0100565D01*
X0241392Y0100649D01*
X0241370Y0100735D01*
X0241353Y0100821D01*
X0241339Y0100909D01*
X0241329Y0100997D01*
X0241323Y0101085D01*
X0241321Y0101173D01*
X0231479Y0101173D02*
X0231481Y0101261D01*
X0231487Y0101349D01*
X0231497Y0101437D01*
X0231511Y0101525D01*
X0231528Y0101611D01*
X0231550Y0101697D01*
X0231575Y0101781D01*
X0231605Y0101865D01*
X0231637Y0101947D01*
X0231674Y0102027D01*
X0231714Y0102106D01*
X0231758Y0102183D01*
X0231805Y0102258D01*
X0231855Y0102330D01*
X0231909Y0102401D01*
X0231965Y0102468D01*
X0232025Y0102534D01*
X0232087Y0102596D01*
X0232153Y0102656D01*
X0232220Y0102712D01*
X0232291Y0102766D01*
X0232363Y0102816D01*
X0232438Y0102863D01*
X0232515Y0102907D01*
X0232594Y0102947D01*
X0232674Y0102984D01*
X0232756Y0103016D01*
X0232840Y0103046D01*
X0232924Y0103071D01*
X0233010Y0103093D01*
X0233096Y0103110D01*
X0233184Y0103124D01*
X0233272Y0103134D01*
X0233360Y0103140D01*
X0233448Y0103142D01*
X0233536Y0103140D01*
X0233624Y0103134D01*
X0233712Y0103124D01*
X0233800Y0103110D01*
X0233886Y0103093D01*
X0233972Y0103071D01*
X0234056Y0103046D01*
X0234140Y0103016D01*
X0234222Y0102984D01*
X0234302Y0102947D01*
X0234381Y0102907D01*
X0234458Y0102863D01*
X0234533Y0102816D01*
X0234605Y0102766D01*
X0234676Y0102712D01*
X0234743Y0102656D01*
X0234809Y0102596D01*
X0234871Y0102534D01*
X0234931Y0102468D01*
X0234987Y0102401D01*
X0235041Y0102330D01*
X0235091Y0102258D01*
X0235138Y0102183D01*
X0235182Y0102106D01*
X0235222Y0102027D01*
X0235259Y0101947D01*
X0235291Y0101865D01*
X0235321Y0101781D01*
X0235346Y0101697D01*
X0235368Y0101611D01*
X0235385Y0101525D01*
X0235399Y0101437D01*
X0235409Y0101349D01*
X0235415Y0101261D01*
X0235417Y0101173D01*
X0235415Y0101085D01*
X0235409Y0100997D01*
X0235399Y0100909D01*
X0235385Y0100821D01*
X0235368Y0100735D01*
X0235346Y0100649D01*
X0235321Y0100565D01*
X0235291Y0100481D01*
X0235259Y0100399D01*
X0235222Y0100319D01*
X0235182Y0100240D01*
X0235138Y0100163D01*
X0235091Y0100088D01*
X0235041Y0100016D01*
X0234987Y0099945D01*
X0234931Y0099878D01*
X0234871Y0099812D01*
X0234809Y0099750D01*
X0234743Y0099690D01*
X0234676Y0099634D01*
X0234605Y0099580D01*
X0234533Y0099530D01*
X0234458Y0099483D01*
X0234381Y0099439D01*
X0234302Y0099399D01*
X0234222Y0099362D01*
X0234140Y0099330D01*
X0234056Y0099300D01*
X0233972Y0099275D01*
X0233886Y0099253D01*
X0233800Y0099236D01*
X0233712Y0099222D01*
X0233624Y0099212D01*
X0233536Y0099206D01*
X0233448Y0099204D01*
X0233360Y0099206D01*
X0233272Y0099212D01*
X0233184Y0099222D01*
X0233096Y0099236D01*
X0233010Y0099253D01*
X0232924Y0099275D01*
X0232840Y0099300D01*
X0232756Y0099330D01*
X0232674Y0099362D01*
X0232594Y0099399D01*
X0232515Y0099439D01*
X0232438Y0099483D01*
X0232363Y0099530D01*
X0232291Y0099580D01*
X0232220Y0099634D01*
X0232153Y0099690D01*
X0232087Y0099750D01*
X0232025Y0099812D01*
X0231965Y0099878D01*
X0231909Y0099945D01*
X0231855Y0100016D01*
X0231805Y0100088D01*
X0231758Y0100163D01*
X0231714Y0100240D01*
X0231674Y0100319D01*
X0231637Y0100399D01*
X0231605Y0100481D01*
X0231575Y0100565D01*
X0231550Y0100649D01*
X0231528Y0100735D01*
X0231511Y0100821D01*
X0231497Y0100909D01*
X0231487Y0100997D01*
X0231481Y0101085D01*
X0231479Y0101173D01*
X0221636Y0101173D02*
X0221638Y0101261D01*
X0221644Y0101349D01*
X0221654Y0101437D01*
X0221668Y0101525D01*
X0221685Y0101611D01*
X0221707Y0101697D01*
X0221732Y0101781D01*
X0221762Y0101865D01*
X0221794Y0101947D01*
X0221831Y0102027D01*
X0221871Y0102106D01*
X0221915Y0102183D01*
X0221962Y0102258D01*
X0222012Y0102330D01*
X0222066Y0102401D01*
X0222122Y0102468D01*
X0222182Y0102534D01*
X0222244Y0102596D01*
X0222310Y0102656D01*
X0222377Y0102712D01*
X0222448Y0102766D01*
X0222520Y0102816D01*
X0222595Y0102863D01*
X0222672Y0102907D01*
X0222751Y0102947D01*
X0222831Y0102984D01*
X0222913Y0103016D01*
X0222997Y0103046D01*
X0223081Y0103071D01*
X0223167Y0103093D01*
X0223253Y0103110D01*
X0223341Y0103124D01*
X0223429Y0103134D01*
X0223517Y0103140D01*
X0223605Y0103142D01*
X0223693Y0103140D01*
X0223781Y0103134D01*
X0223869Y0103124D01*
X0223957Y0103110D01*
X0224043Y0103093D01*
X0224129Y0103071D01*
X0224213Y0103046D01*
X0224297Y0103016D01*
X0224379Y0102984D01*
X0224459Y0102947D01*
X0224538Y0102907D01*
X0224615Y0102863D01*
X0224690Y0102816D01*
X0224762Y0102766D01*
X0224833Y0102712D01*
X0224900Y0102656D01*
X0224966Y0102596D01*
X0225028Y0102534D01*
X0225088Y0102468D01*
X0225144Y0102401D01*
X0225198Y0102330D01*
X0225248Y0102258D01*
X0225295Y0102183D01*
X0225339Y0102106D01*
X0225379Y0102027D01*
X0225416Y0101947D01*
X0225448Y0101865D01*
X0225478Y0101781D01*
X0225503Y0101697D01*
X0225525Y0101611D01*
X0225542Y0101525D01*
X0225556Y0101437D01*
X0225566Y0101349D01*
X0225572Y0101261D01*
X0225574Y0101173D01*
X0225572Y0101085D01*
X0225566Y0100997D01*
X0225556Y0100909D01*
X0225542Y0100821D01*
X0225525Y0100735D01*
X0225503Y0100649D01*
X0225478Y0100565D01*
X0225448Y0100481D01*
X0225416Y0100399D01*
X0225379Y0100319D01*
X0225339Y0100240D01*
X0225295Y0100163D01*
X0225248Y0100088D01*
X0225198Y0100016D01*
X0225144Y0099945D01*
X0225088Y0099878D01*
X0225028Y0099812D01*
X0224966Y0099750D01*
X0224900Y0099690D01*
X0224833Y0099634D01*
X0224762Y0099580D01*
X0224690Y0099530D01*
X0224615Y0099483D01*
X0224538Y0099439D01*
X0224459Y0099399D01*
X0224379Y0099362D01*
X0224297Y0099330D01*
X0224213Y0099300D01*
X0224129Y0099275D01*
X0224043Y0099253D01*
X0223957Y0099236D01*
X0223869Y0099222D01*
X0223781Y0099212D01*
X0223693Y0099206D01*
X0223605Y0099204D01*
X0223517Y0099206D01*
X0223429Y0099212D01*
X0223341Y0099222D01*
X0223253Y0099236D01*
X0223167Y0099253D01*
X0223081Y0099275D01*
X0222997Y0099300D01*
X0222913Y0099330D01*
X0222831Y0099362D01*
X0222751Y0099399D01*
X0222672Y0099439D01*
X0222595Y0099483D01*
X0222520Y0099530D01*
X0222448Y0099580D01*
X0222377Y0099634D01*
X0222310Y0099690D01*
X0222244Y0099750D01*
X0222182Y0099812D01*
X0222122Y0099878D01*
X0222066Y0099945D01*
X0222012Y0100016D01*
X0221962Y0100088D01*
X0221915Y0100163D01*
X0221871Y0100240D01*
X0221831Y0100319D01*
X0221794Y0100399D01*
X0221762Y0100481D01*
X0221732Y0100565D01*
X0221707Y0100649D01*
X0221685Y0100735D01*
X0221668Y0100821D01*
X0221654Y0100909D01*
X0221644Y0100997D01*
X0221638Y0101085D01*
X0221636Y0101173D01*
X0211794Y0101173D02*
X0211796Y0101261D01*
X0211802Y0101349D01*
X0211812Y0101437D01*
X0211826Y0101525D01*
X0211843Y0101611D01*
X0211865Y0101697D01*
X0211890Y0101781D01*
X0211920Y0101865D01*
X0211952Y0101947D01*
X0211989Y0102027D01*
X0212029Y0102106D01*
X0212073Y0102183D01*
X0212120Y0102258D01*
X0212170Y0102330D01*
X0212224Y0102401D01*
X0212280Y0102468D01*
X0212340Y0102534D01*
X0212402Y0102596D01*
X0212468Y0102656D01*
X0212535Y0102712D01*
X0212606Y0102766D01*
X0212678Y0102816D01*
X0212753Y0102863D01*
X0212830Y0102907D01*
X0212909Y0102947D01*
X0212989Y0102984D01*
X0213071Y0103016D01*
X0213155Y0103046D01*
X0213239Y0103071D01*
X0213325Y0103093D01*
X0213411Y0103110D01*
X0213499Y0103124D01*
X0213587Y0103134D01*
X0213675Y0103140D01*
X0213763Y0103142D01*
X0213851Y0103140D01*
X0213939Y0103134D01*
X0214027Y0103124D01*
X0214115Y0103110D01*
X0214201Y0103093D01*
X0214287Y0103071D01*
X0214371Y0103046D01*
X0214455Y0103016D01*
X0214537Y0102984D01*
X0214617Y0102947D01*
X0214696Y0102907D01*
X0214773Y0102863D01*
X0214848Y0102816D01*
X0214920Y0102766D01*
X0214991Y0102712D01*
X0215058Y0102656D01*
X0215124Y0102596D01*
X0215186Y0102534D01*
X0215246Y0102468D01*
X0215302Y0102401D01*
X0215356Y0102330D01*
X0215406Y0102258D01*
X0215453Y0102183D01*
X0215497Y0102106D01*
X0215537Y0102027D01*
X0215574Y0101947D01*
X0215606Y0101865D01*
X0215636Y0101781D01*
X0215661Y0101697D01*
X0215683Y0101611D01*
X0215700Y0101525D01*
X0215714Y0101437D01*
X0215724Y0101349D01*
X0215730Y0101261D01*
X0215732Y0101173D01*
X0215730Y0101085D01*
X0215724Y0100997D01*
X0215714Y0100909D01*
X0215700Y0100821D01*
X0215683Y0100735D01*
X0215661Y0100649D01*
X0215636Y0100565D01*
X0215606Y0100481D01*
X0215574Y0100399D01*
X0215537Y0100319D01*
X0215497Y0100240D01*
X0215453Y0100163D01*
X0215406Y0100088D01*
X0215356Y0100016D01*
X0215302Y0099945D01*
X0215246Y0099878D01*
X0215186Y0099812D01*
X0215124Y0099750D01*
X0215058Y0099690D01*
X0214991Y0099634D01*
X0214920Y0099580D01*
X0214848Y0099530D01*
X0214773Y0099483D01*
X0214696Y0099439D01*
X0214617Y0099399D01*
X0214537Y0099362D01*
X0214455Y0099330D01*
X0214371Y0099300D01*
X0214287Y0099275D01*
X0214201Y0099253D01*
X0214115Y0099236D01*
X0214027Y0099222D01*
X0213939Y0099212D01*
X0213851Y0099206D01*
X0213763Y0099204D01*
X0213675Y0099206D01*
X0213587Y0099212D01*
X0213499Y0099222D01*
X0213411Y0099236D01*
X0213325Y0099253D01*
X0213239Y0099275D01*
X0213155Y0099300D01*
X0213071Y0099330D01*
X0212989Y0099362D01*
X0212909Y0099399D01*
X0212830Y0099439D01*
X0212753Y0099483D01*
X0212678Y0099530D01*
X0212606Y0099580D01*
X0212535Y0099634D01*
X0212468Y0099690D01*
X0212402Y0099750D01*
X0212340Y0099812D01*
X0212280Y0099878D01*
X0212224Y0099945D01*
X0212170Y0100016D01*
X0212120Y0100088D01*
X0212073Y0100163D01*
X0212029Y0100240D01*
X0211989Y0100319D01*
X0211952Y0100399D01*
X0211920Y0100481D01*
X0211890Y0100565D01*
X0211865Y0100649D01*
X0211843Y0100735D01*
X0211826Y0100821D01*
X0211812Y0100909D01*
X0211802Y0100997D01*
X0211796Y0101085D01*
X0211794Y0101173D01*
X0201951Y0101173D02*
X0201953Y0101261D01*
X0201959Y0101349D01*
X0201969Y0101437D01*
X0201983Y0101525D01*
X0202000Y0101611D01*
X0202022Y0101697D01*
X0202047Y0101781D01*
X0202077Y0101865D01*
X0202109Y0101947D01*
X0202146Y0102027D01*
X0202186Y0102106D01*
X0202230Y0102183D01*
X0202277Y0102258D01*
X0202327Y0102330D01*
X0202381Y0102401D01*
X0202437Y0102468D01*
X0202497Y0102534D01*
X0202559Y0102596D01*
X0202625Y0102656D01*
X0202692Y0102712D01*
X0202763Y0102766D01*
X0202835Y0102816D01*
X0202910Y0102863D01*
X0202987Y0102907D01*
X0203066Y0102947D01*
X0203146Y0102984D01*
X0203228Y0103016D01*
X0203312Y0103046D01*
X0203396Y0103071D01*
X0203482Y0103093D01*
X0203568Y0103110D01*
X0203656Y0103124D01*
X0203744Y0103134D01*
X0203832Y0103140D01*
X0203920Y0103142D01*
X0204008Y0103140D01*
X0204096Y0103134D01*
X0204184Y0103124D01*
X0204272Y0103110D01*
X0204358Y0103093D01*
X0204444Y0103071D01*
X0204528Y0103046D01*
X0204612Y0103016D01*
X0204694Y0102984D01*
X0204774Y0102947D01*
X0204853Y0102907D01*
X0204930Y0102863D01*
X0205005Y0102816D01*
X0205077Y0102766D01*
X0205148Y0102712D01*
X0205215Y0102656D01*
X0205281Y0102596D01*
X0205343Y0102534D01*
X0205403Y0102468D01*
X0205459Y0102401D01*
X0205513Y0102330D01*
X0205563Y0102258D01*
X0205610Y0102183D01*
X0205654Y0102106D01*
X0205694Y0102027D01*
X0205731Y0101947D01*
X0205763Y0101865D01*
X0205793Y0101781D01*
X0205818Y0101697D01*
X0205840Y0101611D01*
X0205857Y0101525D01*
X0205871Y0101437D01*
X0205881Y0101349D01*
X0205887Y0101261D01*
X0205889Y0101173D01*
X0205887Y0101085D01*
X0205881Y0100997D01*
X0205871Y0100909D01*
X0205857Y0100821D01*
X0205840Y0100735D01*
X0205818Y0100649D01*
X0205793Y0100565D01*
X0205763Y0100481D01*
X0205731Y0100399D01*
X0205694Y0100319D01*
X0205654Y0100240D01*
X0205610Y0100163D01*
X0205563Y0100088D01*
X0205513Y0100016D01*
X0205459Y0099945D01*
X0205403Y0099878D01*
X0205343Y0099812D01*
X0205281Y0099750D01*
X0205215Y0099690D01*
X0205148Y0099634D01*
X0205077Y0099580D01*
X0205005Y0099530D01*
X0204930Y0099483D01*
X0204853Y0099439D01*
X0204774Y0099399D01*
X0204694Y0099362D01*
X0204612Y0099330D01*
X0204528Y0099300D01*
X0204444Y0099275D01*
X0204358Y0099253D01*
X0204272Y0099236D01*
X0204184Y0099222D01*
X0204096Y0099212D01*
X0204008Y0099206D01*
X0203920Y0099204D01*
X0203832Y0099206D01*
X0203744Y0099212D01*
X0203656Y0099222D01*
X0203568Y0099236D01*
X0203482Y0099253D01*
X0203396Y0099275D01*
X0203312Y0099300D01*
X0203228Y0099330D01*
X0203146Y0099362D01*
X0203066Y0099399D01*
X0202987Y0099439D01*
X0202910Y0099483D01*
X0202835Y0099530D01*
X0202763Y0099580D01*
X0202692Y0099634D01*
X0202625Y0099690D01*
X0202559Y0099750D01*
X0202497Y0099812D01*
X0202437Y0099878D01*
X0202381Y0099945D01*
X0202327Y0100016D01*
X0202277Y0100088D01*
X0202230Y0100163D01*
X0202186Y0100240D01*
X0202146Y0100319D01*
X0202109Y0100399D01*
X0202077Y0100481D01*
X0202047Y0100565D01*
X0202022Y0100649D01*
X0202000Y0100735D01*
X0201983Y0100821D01*
X0201969Y0100909D01*
X0201959Y0100997D01*
X0201953Y0101085D01*
X0201951Y0101173D01*
X0192109Y0101173D02*
X0192111Y0101261D01*
X0192117Y0101349D01*
X0192127Y0101437D01*
X0192141Y0101525D01*
X0192158Y0101611D01*
X0192180Y0101697D01*
X0192205Y0101781D01*
X0192235Y0101865D01*
X0192267Y0101947D01*
X0192304Y0102027D01*
X0192344Y0102106D01*
X0192388Y0102183D01*
X0192435Y0102258D01*
X0192485Y0102330D01*
X0192539Y0102401D01*
X0192595Y0102468D01*
X0192655Y0102534D01*
X0192717Y0102596D01*
X0192783Y0102656D01*
X0192850Y0102712D01*
X0192921Y0102766D01*
X0192993Y0102816D01*
X0193068Y0102863D01*
X0193145Y0102907D01*
X0193224Y0102947D01*
X0193304Y0102984D01*
X0193386Y0103016D01*
X0193470Y0103046D01*
X0193554Y0103071D01*
X0193640Y0103093D01*
X0193726Y0103110D01*
X0193814Y0103124D01*
X0193902Y0103134D01*
X0193990Y0103140D01*
X0194078Y0103142D01*
X0194166Y0103140D01*
X0194254Y0103134D01*
X0194342Y0103124D01*
X0194430Y0103110D01*
X0194516Y0103093D01*
X0194602Y0103071D01*
X0194686Y0103046D01*
X0194770Y0103016D01*
X0194852Y0102984D01*
X0194932Y0102947D01*
X0195011Y0102907D01*
X0195088Y0102863D01*
X0195163Y0102816D01*
X0195235Y0102766D01*
X0195306Y0102712D01*
X0195373Y0102656D01*
X0195439Y0102596D01*
X0195501Y0102534D01*
X0195561Y0102468D01*
X0195617Y0102401D01*
X0195671Y0102330D01*
X0195721Y0102258D01*
X0195768Y0102183D01*
X0195812Y0102106D01*
X0195852Y0102027D01*
X0195889Y0101947D01*
X0195921Y0101865D01*
X0195951Y0101781D01*
X0195976Y0101697D01*
X0195998Y0101611D01*
X0196015Y0101525D01*
X0196029Y0101437D01*
X0196039Y0101349D01*
X0196045Y0101261D01*
X0196047Y0101173D01*
X0196045Y0101085D01*
X0196039Y0100997D01*
X0196029Y0100909D01*
X0196015Y0100821D01*
X0195998Y0100735D01*
X0195976Y0100649D01*
X0195951Y0100565D01*
X0195921Y0100481D01*
X0195889Y0100399D01*
X0195852Y0100319D01*
X0195812Y0100240D01*
X0195768Y0100163D01*
X0195721Y0100088D01*
X0195671Y0100016D01*
X0195617Y0099945D01*
X0195561Y0099878D01*
X0195501Y0099812D01*
X0195439Y0099750D01*
X0195373Y0099690D01*
X0195306Y0099634D01*
X0195235Y0099580D01*
X0195163Y0099530D01*
X0195088Y0099483D01*
X0195011Y0099439D01*
X0194932Y0099399D01*
X0194852Y0099362D01*
X0194770Y0099330D01*
X0194686Y0099300D01*
X0194602Y0099275D01*
X0194516Y0099253D01*
X0194430Y0099236D01*
X0194342Y0099222D01*
X0194254Y0099212D01*
X0194166Y0099206D01*
X0194078Y0099204D01*
X0193990Y0099206D01*
X0193902Y0099212D01*
X0193814Y0099222D01*
X0193726Y0099236D01*
X0193640Y0099253D01*
X0193554Y0099275D01*
X0193470Y0099300D01*
X0193386Y0099330D01*
X0193304Y0099362D01*
X0193224Y0099399D01*
X0193145Y0099439D01*
X0193068Y0099483D01*
X0192993Y0099530D01*
X0192921Y0099580D01*
X0192850Y0099634D01*
X0192783Y0099690D01*
X0192717Y0099750D01*
X0192655Y0099812D01*
X0192595Y0099878D01*
X0192539Y0099945D01*
X0192485Y0100016D01*
X0192435Y0100088D01*
X0192388Y0100163D01*
X0192344Y0100240D01*
X0192304Y0100319D01*
X0192267Y0100399D01*
X0192235Y0100481D01*
X0192205Y0100565D01*
X0192180Y0100649D01*
X0192158Y0100735D01*
X0192141Y0100821D01*
X0192127Y0100909D01*
X0192117Y0100997D01*
X0192111Y0101085D01*
X0192109Y0101173D01*
X0182266Y0101173D02*
X0182268Y0101261D01*
X0182274Y0101349D01*
X0182284Y0101437D01*
X0182298Y0101525D01*
X0182315Y0101611D01*
X0182337Y0101697D01*
X0182362Y0101781D01*
X0182392Y0101865D01*
X0182424Y0101947D01*
X0182461Y0102027D01*
X0182501Y0102106D01*
X0182545Y0102183D01*
X0182592Y0102258D01*
X0182642Y0102330D01*
X0182696Y0102401D01*
X0182752Y0102468D01*
X0182812Y0102534D01*
X0182874Y0102596D01*
X0182940Y0102656D01*
X0183007Y0102712D01*
X0183078Y0102766D01*
X0183150Y0102816D01*
X0183225Y0102863D01*
X0183302Y0102907D01*
X0183381Y0102947D01*
X0183461Y0102984D01*
X0183543Y0103016D01*
X0183627Y0103046D01*
X0183711Y0103071D01*
X0183797Y0103093D01*
X0183883Y0103110D01*
X0183971Y0103124D01*
X0184059Y0103134D01*
X0184147Y0103140D01*
X0184235Y0103142D01*
X0184323Y0103140D01*
X0184411Y0103134D01*
X0184499Y0103124D01*
X0184587Y0103110D01*
X0184673Y0103093D01*
X0184759Y0103071D01*
X0184843Y0103046D01*
X0184927Y0103016D01*
X0185009Y0102984D01*
X0185089Y0102947D01*
X0185168Y0102907D01*
X0185245Y0102863D01*
X0185320Y0102816D01*
X0185392Y0102766D01*
X0185463Y0102712D01*
X0185530Y0102656D01*
X0185596Y0102596D01*
X0185658Y0102534D01*
X0185718Y0102468D01*
X0185774Y0102401D01*
X0185828Y0102330D01*
X0185878Y0102258D01*
X0185925Y0102183D01*
X0185969Y0102106D01*
X0186009Y0102027D01*
X0186046Y0101947D01*
X0186078Y0101865D01*
X0186108Y0101781D01*
X0186133Y0101697D01*
X0186155Y0101611D01*
X0186172Y0101525D01*
X0186186Y0101437D01*
X0186196Y0101349D01*
X0186202Y0101261D01*
X0186204Y0101173D01*
X0186202Y0101085D01*
X0186196Y0100997D01*
X0186186Y0100909D01*
X0186172Y0100821D01*
X0186155Y0100735D01*
X0186133Y0100649D01*
X0186108Y0100565D01*
X0186078Y0100481D01*
X0186046Y0100399D01*
X0186009Y0100319D01*
X0185969Y0100240D01*
X0185925Y0100163D01*
X0185878Y0100088D01*
X0185828Y0100016D01*
X0185774Y0099945D01*
X0185718Y0099878D01*
X0185658Y0099812D01*
X0185596Y0099750D01*
X0185530Y0099690D01*
X0185463Y0099634D01*
X0185392Y0099580D01*
X0185320Y0099530D01*
X0185245Y0099483D01*
X0185168Y0099439D01*
X0185089Y0099399D01*
X0185009Y0099362D01*
X0184927Y0099330D01*
X0184843Y0099300D01*
X0184759Y0099275D01*
X0184673Y0099253D01*
X0184587Y0099236D01*
X0184499Y0099222D01*
X0184411Y0099212D01*
X0184323Y0099206D01*
X0184235Y0099204D01*
X0184147Y0099206D01*
X0184059Y0099212D01*
X0183971Y0099222D01*
X0183883Y0099236D01*
X0183797Y0099253D01*
X0183711Y0099275D01*
X0183627Y0099300D01*
X0183543Y0099330D01*
X0183461Y0099362D01*
X0183381Y0099399D01*
X0183302Y0099439D01*
X0183225Y0099483D01*
X0183150Y0099530D01*
X0183078Y0099580D01*
X0183007Y0099634D01*
X0182940Y0099690D01*
X0182874Y0099750D01*
X0182812Y0099812D01*
X0182752Y0099878D01*
X0182696Y0099945D01*
X0182642Y0100016D01*
X0182592Y0100088D01*
X0182545Y0100163D01*
X0182501Y0100240D01*
X0182461Y0100319D01*
X0182424Y0100399D01*
X0182392Y0100481D01*
X0182362Y0100565D01*
X0182337Y0100649D01*
X0182315Y0100735D01*
X0182298Y0100821D01*
X0182284Y0100909D01*
X0182274Y0100997D01*
X0182268Y0101085D01*
X0182266Y0101173D01*
X0172424Y0101173D02*
X0172426Y0101261D01*
X0172432Y0101349D01*
X0172442Y0101437D01*
X0172456Y0101525D01*
X0172473Y0101611D01*
X0172495Y0101697D01*
X0172520Y0101781D01*
X0172550Y0101865D01*
X0172582Y0101947D01*
X0172619Y0102027D01*
X0172659Y0102106D01*
X0172703Y0102183D01*
X0172750Y0102258D01*
X0172800Y0102330D01*
X0172854Y0102401D01*
X0172910Y0102468D01*
X0172970Y0102534D01*
X0173032Y0102596D01*
X0173098Y0102656D01*
X0173165Y0102712D01*
X0173236Y0102766D01*
X0173308Y0102816D01*
X0173383Y0102863D01*
X0173460Y0102907D01*
X0173539Y0102947D01*
X0173619Y0102984D01*
X0173701Y0103016D01*
X0173785Y0103046D01*
X0173869Y0103071D01*
X0173955Y0103093D01*
X0174041Y0103110D01*
X0174129Y0103124D01*
X0174217Y0103134D01*
X0174305Y0103140D01*
X0174393Y0103142D01*
X0174481Y0103140D01*
X0174569Y0103134D01*
X0174657Y0103124D01*
X0174745Y0103110D01*
X0174831Y0103093D01*
X0174917Y0103071D01*
X0175001Y0103046D01*
X0175085Y0103016D01*
X0175167Y0102984D01*
X0175247Y0102947D01*
X0175326Y0102907D01*
X0175403Y0102863D01*
X0175478Y0102816D01*
X0175550Y0102766D01*
X0175621Y0102712D01*
X0175688Y0102656D01*
X0175754Y0102596D01*
X0175816Y0102534D01*
X0175876Y0102468D01*
X0175932Y0102401D01*
X0175986Y0102330D01*
X0176036Y0102258D01*
X0176083Y0102183D01*
X0176127Y0102106D01*
X0176167Y0102027D01*
X0176204Y0101947D01*
X0176236Y0101865D01*
X0176266Y0101781D01*
X0176291Y0101697D01*
X0176313Y0101611D01*
X0176330Y0101525D01*
X0176344Y0101437D01*
X0176354Y0101349D01*
X0176360Y0101261D01*
X0176362Y0101173D01*
X0176360Y0101085D01*
X0176354Y0100997D01*
X0176344Y0100909D01*
X0176330Y0100821D01*
X0176313Y0100735D01*
X0176291Y0100649D01*
X0176266Y0100565D01*
X0176236Y0100481D01*
X0176204Y0100399D01*
X0176167Y0100319D01*
X0176127Y0100240D01*
X0176083Y0100163D01*
X0176036Y0100088D01*
X0175986Y0100016D01*
X0175932Y0099945D01*
X0175876Y0099878D01*
X0175816Y0099812D01*
X0175754Y0099750D01*
X0175688Y0099690D01*
X0175621Y0099634D01*
X0175550Y0099580D01*
X0175478Y0099530D01*
X0175403Y0099483D01*
X0175326Y0099439D01*
X0175247Y0099399D01*
X0175167Y0099362D01*
X0175085Y0099330D01*
X0175001Y0099300D01*
X0174917Y0099275D01*
X0174831Y0099253D01*
X0174745Y0099236D01*
X0174657Y0099222D01*
X0174569Y0099212D01*
X0174481Y0099206D01*
X0174393Y0099204D01*
X0174305Y0099206D01*
X0174217Y0099212D01*
X0174129Y0099222D01*
X0174041Y0099236D01*
X0173955Y0099253D01*
X0173869Y0099275D01*
X0173785Y0099300D01*
X0173701Y0099330D01*
X0173619Y0099362D01*
X0173539Y0099399D01*
X0173460Y0099439D01*
X0173383Y0099483D01*
X0173308Y0099530D01*
X0173236Y0099580D01*
X0173165Y0099634D01*
X0173098Y0099690D01*
X0173032Y0099750D01*
X0172970Y0099812D01*
X0172910Y0099878D01*
X0172854Y0099945D01*
X0172800Y0100016D01*
X0172750Y0100088D01*
X0172703Y0100163D01*
X0172659Y0100240D01*
X0172619Y0100319D01*
X0172582Y0100399D01*
X0172550Y0100481D01*
X0172520Y0100565D01*
X0172495Y0100649D01*
X0172473Y0100735D01*
X0172456Y0100821D01*
X0172442Y0100909D01*
X0172432Y0100997D01*
X0172426Y0101085D01*
X0172424Y0101173D01*
X0162581Y0101173D02*
X0162583Y0101261D01*
X0162589Y0101349D01*
X0162599Y0101437D01*
X0162613Y0101525D01*
X0162630Y0101611D01*
X0162652Y0101697D01*
X0162677Y0101781D01*
X0162707Y0101865D01*
X0162739Y0101947D01*
X0162776Y0102027D01*
X0162816Y0102106D01*
X0162860Y0102183D01*
X0162907Y0102258D01*
X0162957Y0102330D01*
X0163011Y0102401D01*
X0163067Y0102468D01*
X0163127Y0102534D01*
X0163189Y0102596D01*
X0163255Y0102656D01*
X0163322Y0102712D01*
X0163393Y0102766D01*
X0163465Y0102816D01*
X0163540Y0102863D01*
X0163617Y0102907D01*
X0163696Y0102947D01*
X0163776Y0102984D01*
X0163858Y0103016D01*
X0163942Y0103046D01*
X0164026Y0103071D01*
X0164112Y0103093D01*
X0164198Y0103110D01*
X0164286Y0103124D01*
X0164374Y0103134D01*
X0164462Y0103140D01*
X0164550Y0103142D01*
X0164638Y0103140D01*
X0164726Y0103134D01*
X0164814Y0103124D01*
X0164902Y0103110D01*
X0164988Y0103093D01*
X0165074Y0103071D01*
X0165158Y0103046D01*
X0165242Y0103016D01*
X0165324Y0102984D01*
X0165404Y0102947D01*
X0165483Y0102907D01*
X0165560Y0102863D01*
X0165635Y0102816D01*
X0165707Y0102766D01*
X0165778Y0102712D01*
X0165845Y0102656D01*
X0165911Y0102596D01*
X0165973Y0102534D01*
X0166033Y0102468D01*
X0166089Y0102401D01*
X0166143Y0102330D01*
X0166193Y0102258D01*
X0166240Y0102183D01*
X0166284Y0102106D01*
X0166324Y0102027D01*
X0166361Y0101947D01*
X0166393Y0101865D01*
X0166423Y0101781D01*
X0166448Y0101697D01*
X0166470Y0101611D01*
X0166487Y0101525D01*
X0166501Y0101437D01*
X0166511Y0101349D01*
X0166517Y0101261D01*
X0166519Y0101173D01*
X0166517Y0101085D01*
X0166511Y0100997D01*
X0166501Y0100909D01*
X0166487Y0100821D01*
X0166470Y0100735D01*
X0166448Y0100649D01*
X0166423Y0100565D01*
X0166393Y0100481D01*
X0166361Y0100399D01*
X0166324Y0100319D01*
X0166284Y0100240D01*
X0166240Y0100163D01*
X0166193Y0100088D01*
X0166143Y0100016D01*
X0166089Y0099945D01*
X0166033Y0099878D01*
X0165973Y0099812D01*
X0165911Y0099750D01*
X0165845Y0099690D01*
X0165778Y0099634D01*
X0165707Y0099580D01*
X0165635Y0099530D01*
X0165560Y0099483D01*
X0165483Y0099439D01*
X0165404Y0099399D01*
X0165324Y0099362D01*
X0165242Y0099330D01*
X0165158Y0099300D01*
X0165074Y0099275D01*
X0164988Y0099253D01*
X0164902Y0099236D01*
X0164814Y0099222D01*
X0164726Y0099212D01*
X0164638Y0099206D01*
X0164550Y0099204D01*
X0164462Y0099206D01*
X0164374Y0099212D01*
X0164286Y0099222D01*
X0164198Y0099236D01*
X0164112Y0099253D01*
X0164026Y0099275D01*
X0163942Y0099300D01*
X0163858Y0099330D01*
X0163776Y0099362D01*
X0163696Y0099399D01*
X0163617Y0099439D01*
X0163540Y0099483D01*
X0163465Y0099530D01*
X0163393Y0099580D01*
X0163322Y0099634D01*
X0163255Y0099690D01*
X0163189Y0099750D01*
X0163127Y0099812D01*
X0163067Y0099878D01*
X0163011Y0099945D01*
X0162957Y0100016D01*
X0162907Y0100088D01*
X0162860Y0100163D01*
X0162816Y0100240D01*
X0162776Y0100319D01*
X0162739Y0100399D01*
X0162707Y0100481D01*
X0162677Y0100565D01*
X0162652Y0100649D01*
X0162630Y0100735D01*
X0162613Y0100821D01*
X0162599Y0100909D01*
X0162589Y0100997D01*
X0162583Y0101085D01*
X0162581Y0101173D01*
X0152738Y0101173D02*
X0152740Y0101261D01*
X0152746Y0101349D01*
X0152756Y0101437D01*
X0152770Y0101525D01*
X0152787Y0101611D01*
X0152809Y0101697D01*
X0152834Y0101781D01*
X0152864Y0101865D01*
X0152896Y0101947D01*
X0152933Y0102027D01*
X0152973Y0102106D01*
X0153017Y0102183D01*
X0153064Y0102258D01*
X0153114Y0102330D01*
X0153168Y0102401D01*
X0153224Y0102468D01*
X0153284Y0102534D01*
X0153346Y0102596D01*
X0153412Y0102656D01*
X0153479Y0102712D01*
X0153550Y0102766D01*
X0153622Y0102816D01*
X0153697Y0102863D01*
X0153774Y0102907D01*
X0153853Y0102947D01*
X0153933Y0102984D01*
X0154015Y0103016D01*
X0154099Y0103046D01*
X0154183Y0103071D01*
X0154269Y0103093D01*
X0154355Y0103110D01*
X0154443Y0103124D01*
X0154531Y0103134D01*
X0154619Y0103140D01*
X0154707Y0103142D01*
X0154795Y0103140D01*
X0154883Y0103134D01*
X0154971Y0103124D01*
X0155059Y0103110D01*
X0155145Y0103093D01*
X0155231Y0103071D01*
X0155315Y0103046D01*
X0155399Y0103016D01*
X0155481Y0102984D01*
X0155561Y0102947D01*
X0155640Y0102907D01*
X0155717Y0102863D01*
X0155792Y0102816D01*
X0155864Y0102766D01*
X0155935Y0102712D01*
X0156002Y0102656D01*
X0156068Y0102596D01*
X0156130Y0102534D01*
X0156190Y0102468D01*
X0156246Y0102401D01*
X0156300Y0102330D01*
X0156350Y0102258D01*
X0156397Y0102183D01*
X0156441Y0102106D01*
X0156481Y0102027D01*
X0156518Y0101947D01*
X0156550Y0101865D01*
X0156580Y0101781D01*
X0156605Y0101697D01*
X0156627Y0101611D01*
X0156644Y0101525D01*
X0156658Y0101437D01*
X0156668Y0101349D01*
X0156674Y0101261D01*
X0156676Y0101173D01*
X0156674Y0101085D01*
X0156668Y0100997D01*
X0156658Y0100909D01*
X0156644Y0100821D01*
X0156627Y0100735D01*
X0156605Y0100649D01*
X0156580Y0100565D01*
X0156550Y0100481D01*
X0156518Y0100399D01*
X0156481Y0100319D01*
X0156441Y0100240D01*
X0156397Y0100163D01*
X0156350Y0100088D01*
X0156300Y0100016D01*
X0156246Y0099945D01*
X0156190Y0099878D01*
X0156130Y0099812D01*
X0156068Y0099750D01*
X0156002Y0099690D01*
X0155935Y0099634D01*
X0155864Y0099580D01*
X0155792Y0099530D01*
X0155717Y0099483D01*
X0155640Y0099439D01*
X0155561Y0099399D01*
X0155481Y0099362D01*
X0155399Y0099330D01*
X0155315Y0099300D01*
X0155231Y0099275D01*
X0155145Y0099253D01*
X0155059Y0099236D01*
X0154971Y0099222D01*
X0154883Y0099212D01*
X0154795Y0099206D01*
X0154707Y0099204D01*
X0154619Y0099206D01*
X0154531Y0099212D01*
X0154443Y0099222D01*
X0154355Y0099236D01*
X0154269Y0099253D01*
X0154183Y0099275D01*
X0154099Y0099300D01*
X0154015Y0099330D01*
X0153933Y0099362D01*
X0153853Y0099399D01*
X0153774Y0099439D01*
X0153697Y0099483D01*
X0153622Y0099530D01*
X0153550Y0099580D01*
X0153479Y0099634D01*
X0153412Y0099690D01*
X0153346Y0099750D01*
X0153284Y0099812D01*
X0153224Y0099878D01*
X0153168Y0099945D01*
X0153114Y0100016D01*
X0153064Y0100088D01*
X0153017Y0100163D01*
X0152973Y0100240D01*
X0152933Y0100319D01*
X0152896Y0100399D01*
X0152864Y0100481D01*
X0152834Y0100565D01*
X0152809Y0100649D01*
X0152787Y0100735D01*
X0152770Y0100821D01*
X0152756Y0100909D01*
X0152746Y0100997D01*
X0152740Y0101085D01*
X0152738Y0101173D01*
X0142896Y0101173D02*
X0142898Y0101261D01*
X0142904Y0101349D01*
X0142914Y0101437D01*
X0142928Y0101525D01*
X0142945Y0101611D01*
X0142967Y0101697D01*
X0142992Y0101781D01*
X0143022Y0101865D01*
X0143054Y0101947D01*
X0143091Y0102027D01*
X0143131Y0102106D01*
X0143175Y0102183D01*
X0143222Y0102258D01*
X0143272Y0102330D01*
X0143326Y0102401D01*
X0143382Y0102468D01*
X0143442Y0102534D01*
X0143504Y0102596D01*
X0143570Y0102656D01*
X0143637Y0102712D01*
X0143708Y0102766D01*
X0143780Y0102816D01*
X0143855Y0102863D01*
X0143932Y0102907D01*
X0144011Y0102947D01*
X0144091Y0102984D01*
X0144173Y0103016D01*
X0144257Y0103046D01*
X0144341Y0103071D01*
X0144427Y0103093D01*
X0144513Y0103110D01*
X0144601Y0103124D01*
X0144689Y0103134D01*
X0144777Y0103140D01*
X0144865Y0103142D01*
X0144953Y0103140D01*
X0145041Y0103134D01*
X0145129Y0103124D01*
X0145217Y0103110D01*
X0145303Y0103093D01*
X0145389Y0103071D01*
X0145473Y0103046D01*
X0145557Y0103016D01*
X0145639Y0102984D01*
X0145719Y0102947D01*
X0145798Y0102907D01*
X0145875Y0102863D01*
X0145950Y0102816D01*
X0146022Y0102766D01*
X0146093Y0102712D01*
X0146160Y0102656D01*
X0146226Y0102596D01*
X0146288Y0102534D01*
X0146348Y0102468D01*
X0146404Y0102401D01*
X0146458Y0102330D01*
X0146508Y0102258D01*
X0146555Y0102183D01*
X0146599Y0102106D01*
X0146639Y0102027D01*
X0146676Y0101947D01*
X0146708Y0101865D01*
X0146738Y0101781D01*
X0146763Y0101697D01*
X0146785Y0101611D01*
X0146802Y0101525D01*
X0146816Y0101437D01*
X0146826Y0101349D01*
X0146832Y0101261D01*
X0146834Y0101173D01*
X0146832Y0101085D01*
X0146826Y0100997D01*
X0146816Y0100909D01*
X0146802Y0100821D01*
X0146785Y0100735D01*
X0146763Y0100649D01*
X0146738Y0100565D01*
X0146708Y0100481D01*
X0146676Y0100399D01*
X0146639Y0100319D01*
X0146599Y0100240D01*
X0146555Y0100163D01*
X0146508Y0100088D01*
X0146458Y0100016D01*
X0146404Y0099945D01*
X0146348Y0099878D01*
X0146288Y0099812D01*
X0146226Y0099750D01*
X0146160Y0099690D01*
X0146093Y0099634D01*
X0146022Y0099580D01*
X0145950Y0099530D01*
X0145875Y0099483D01*
X0145798Y0099439D01*
X0145719Y0099399D01*
X0145639Y0099362D01*
X0145557Y0099330D01*
X0145473Y0099300D01*
X0145389Y0099275D01*
X0145303Y0099253D01*
X0145217Y0099236D01*
X0145129Y0099222D01*
X0145041Y0099212D01*
X0144953Y0099206D01*
X0144865Y0099204D01*
X0144777Y0099206D01*
X0144689Y0099212D01*
X0144601Y0099222D01*
X0144513Y0099236D01*
X0144427Y0099253D01*
X0144341Y0099275D01*
X0144257Y0099300D01*
X0144173Y0099330D01*
X0144091Y0099362D01*
X0144011Y0099399D01*
X0143932Y0099439D01*
X0143855Y0099483D01*
X0143780Y0099530D01*
X0143708Y0099580D01*
X0143637Y0099634D01*
X0143570Y0099690D01*
X0143504Y0099750D01*
X0143442Y0099812D01*
X0143382Y0099878D01*
X0143326Y0099945D01*
X0143272Y0100016D01*
X0143222Y0100088D01*
X0143175Y0100163D01*
X0143131Y0100240D01*
X0143091Y0100319D01*
X0143054Y0100399D01*
X0143022Y0100481D01*
X0142992Y0100565D01*
X0142967Y0100649D01*
X0142945Y0100735D01*
X0142928Y0100821D01*
X0142914Y0100909D01*
X0142904Y0100997D01*
X0142898Y0101085D01*
X0142896Y0101173D01*
X0123211Y0101173D02*
X0123213Y0101261D01*
X0123219Y0101349D01*
X0123229Y0101437D01*
X0123243Y0101525D01*
X0123260Y0101611D01*
X0123282Y0101697D01*
X0123307Y0101781D01*
X0123337Y0101865D01*
X0123369Y0101947D01*
X0123406Y0102027D01*
X0123446Y0102106D01*
X0123490Y0102183D01*
X0123537Y0102258D01*
X0123587Y0102330D01*
X0123641Y0102401D01*
X0123697Y0102468D01*
X0123757Y0102534D01*
X0123819Y0102596D01*
X0123885Y0102656D01*
X0123952Y0102712D01*
X0124023Y0102766D01*
X0124095Y0102816D01*
X0124170Y0102863D01*
X0124247Y0102907D01*
X0124326Y0102947D01*
X0124406Y0102984D01*
X0124488Y0103016D01*
X0124572Y0103046D01*
X0124656Y0103071D01*
X0124742Y0103093D01*
X0124828Y0103110D01*
X0124916Y0103124D01*
X0125004Y0103134D01*
X0125092Y0103140D01*
X0125180Y0103142D01*
X0125268Y0103140D01*
X0125356Y0103134D01*
X0125444Y0103124D01*
X0125532Y0103110D01*
X0125618Y0103093D01*
X0125704Y0103071D01*
X0125788Y0103046D01*
X0125872Y0103016D01*
X0125954Y0102984D01*
X0126034Y0102947D01*
X0126113Y0102907D01*
X0126190Y0102863D01*
X0126265Y0102816D01*
X0126337Y0102766D01*
X0126408Y0102712D01*
X0126475Y0102656D01*
X0126541Y0102596D01*
X0126603Y0102534D01*
X0126663Y0102468D01*
X0126719Y0102401D01*
X0126773Y0102330D01*
X0126823Y0102258D01*
X0126870Y0102183D01*
X0126914Y0102106D01*
X0126954Y0102027D01*
X0126991Y0101947D01*
X0127023Y0101865D01*
X0127053Y0101781D01*
X0127078Y0101697D01*
X0127100Y0101611D01*
X0127117Y0101525D01*
X0127131Y0101437D01*
X0127141Y0101349D01*
X0127147Y0101261D01*
X0127149Y0101173D01*
X0127147Y0101085D01*
X0127141Y0100997D01*
X0127131Y0100909D01*
X0127117Y0100821D01*
X0127100Y0100735D01*
X0127078Y0100649D01*
X0127053Y0100565D01*
X0127023Y0100481D01*
X0126991Y0100399D01*
X0126954Y0100319D01*
X0126914Y0100240D01*
X0126870Y0100163D01*
X0126823Y0100088D01*
X0126773Y0100016D01*
X0126719Y0099945D01*
X0126663Y0099878D01*
X0126603Y0099812D01*
X0126541Y0099750D01*
X0126475Y0099690D01*
X0126408Y0099634D01*
X0126337Y0099580D01*
X0126265Y0099530D01*
X0126190Y0099483D01*
X0126113Y0099439D01*
X0126034Y0099399D01*
X0125954Y0099362D01*
X0125872Y0099330D01*
X0125788Y0099300D01*
X0125704Y0099275D01*
X0125618Y0099253D01*
X0125532Y0099236D01*
X0125444Y0099222D01*
X0125356Y0099212D01*
X0125268Y0099206D01*
X0125180Y0099204D01*
X0125092Y0099206D01*
X0125004Y0099212D01*
X0124916Y0099222D01*
X0124828Y0099236D01*
X0124742Y0099253D01*
X0124656Y0099275D01*
X0124572Y0099300D01*
X0124488Y0099330D01*
X0124406Y0099362D01*
X0124326Y0099399D01*
X0124247Y0099439D01*
X0124170Y0099483D01*
X0124095Y0099530D01*
X0124023Y0099580D01*
X0123952Y0099634D01*
X0123885Y0099690D01*
X0123819Y0099750D01*
X0123757Y0099812D01*
X0123697Y0099878D01*
X0123641Y0099945D01*
X0123587Y0100016D01*
X0123537Y0100088D01*
X0123490Y0100163D01*
X0123446Y0100240D01*
X0123406Y0100319D01*
X0123369Y0100399D01*
X0123337Y0100481D01*
X0123307Y0100565D01*
X0123282Y0100649D01*
X0123260Y0100735D01*
X0123243Y0100821D01*
X0123229Y0100909D01*
X0123219Y0100997D01*
X0123213Y0101085D01*
X0123211Y0101173D01*
X0113368Y0101173D02*
X0113370Y0101261D01*
X0113376Y0101349D01*
X0113386Y0101437D01*
X0113400Y0101525D01*
X0113417Y0101611D01*
X0113439Y0101697D01*
X0113464Y0101781D01*
X0113494Y0101865D01*
X0113526Y0101947D01*
X0113563Y0102027D01*
X0113603Y0102106D01*
X0113647Y0102183D01*
X0113694Y0102258D01*
X0113744Y0102330D01*
X0113798Y0102401D01*
X0113854Y0102468D01*
X0113914Y0102534D01*
X0113976Y0102596D01*
X0114042Y0102656D01*
X0114109Y0102712D01*
X0114180Y0102766D01*
X0114252Y0102816D01*
X0114327Y0102863D01*
X0114404Y0102907D01*
X0114483Y0102947D01*
X0114563Y0102984D01*
X0114645Y0103016D01*
X0114729Y0103046D01*
X0114813Y0103071D01*
X0114899Y0103093D01*
X0114985Y0103110D01*
X0115073Y0103124D01*
X0115161Y0103134D01*
X0115249Y0103140D01*
X0115337Y0103142D01*
X0115425Y0103140D01*
X0115513Y0103134D01*
X0115601Y0103124D01*
X0115689Y0103110D01*
X0115775Y0103093D01*
X0115861Y0103071D01*
X0115945Y0103046D01*
X0116029Y0103016D01*
X0116111Y0102984D01*
X0116191Y0102947D01*
X0116270Y0102907D01*
X0116347Y0102863D01*
X0116422Y0102816D01*
X0116494Y0102766D01*
X0116565Y0102712D01*
X0116632Y0102656D01*
X0116698Y0102596D01*
X0116760Y0102534D01*
X0116820Y0102468D01*
X0116876Y0102401D01*
X0116930Y0102330D01*
X0116980Y0102258D01*
X0117027Y0102183D01*
X0117071Y0102106D01*
X0117111Y0102027D01*
X0117148Y0101947D01*
X0117180Y0101865D01*
X0117210Y0101781D01*
X0117235Y0101697D01*
X0117257Y0101611D01*
X0117274Y0101525D01*
X0117288Y0101437D01*
X0117298Y0101349D01*
X0117304Y0101261D01*
X0117306Y0101173D01*
X0117304Y0101085D01*
X0117298Y0100997D01*
X0117288Y0100909D01*
X0117274Y0100821D01*
X0117257Y0100735D01*
X0117235Y0100649D01*
X0117210Y0100565D01*
X0117180Y0100481D01*
X0117148Y0100399D01*
X0117111Y0100319D01*
X0117071Y0100240D01*
X0117027Y0100163D01*
X0116980Y0100088D01*
X0116930Y0100016D01*
X0116876Y0099945D01*
X0116820Y0099878D01*
X0116760Y0099812D01*
X0116698Y0099750D01*
X0116632Y0099690D01*
X0116565Y0099634D01*
X0116494Y0099580D01*
X0116422Y0099530D01*
X0116347Y0099483D01*
X0116270Y0099439D01*
X0116191Y0099399D01*
X0116111Y0099362D01*
X0116029Y0099330D01*
X0115945Y0099300D01*
X0115861Y0099275D01*
X0115775Y0099253D01*
X0115689Y0099236D01*
X0115601Y0099222D01*
X0115513Y0099212D01*
X0115425Y0099206D01*
X0115337Y0099204D01*
X0115249Y0099206D01*
X0115161Y0099212D01*
X0115073Y0099222D01*
X0114985Y0099236D01*
X0114899Y0099253D01*
X0114813Y0099275D01*
X0114729Y0099300D01*
X0114645Y0099330D01*
X0114563Y0099362D01*
X0114483Y0099399D01*
X0114404Y0099439D01*
X0114327Y0099483D01*
X0114252Y0099530D01*
X0114180Y0099580D01*
X0114109Y0099634D01*
X0114042Y0099690D01*
X0113976Y0099750D01*
X0113914Y0099812D01*
X0113854Y0099878D01*
X0113798Y0099945D01*
X0113744Y0100016D01*
X0113694Y0100088D01*
X0113647Y0100163D01*
X0113603Y0100240D01*
X0113563Y0100319D01*
X0113526Y0100399D01*
X0113494Y0100481D01*
X0113464Y0100565D01*
X0113439Y0100649D01*
X0113417Y0100735D01*
X0113400Y0100821D01*
X0113386Y0100909D01*
X0113376Y0100997D01*
X0113370Y0101085D01*
X0113368Y0101173D01*
X0103526Y0101173D02*
X0103528Y0101261D01*
X0103534Y0101349D01*
X0103544Y0101437D01*
X0103558Y0101525D01*
X0103575Y0101611D01*
X0103597Y0101697D01*
X0103622Y0101781D01*
X0103652Y0101865D01*
X0103684Y0101947D01*
X0103721Y0102027D01*
X0103761Y0102106D01*
X0103805Y0102183D01*
X0103852Y0102258D01*
X0103902Y0102330D01*
X0103956Y0102401D01*
X0104012Y0102468D01*
X0104072Y0102534D01*
X0104134Y0102596D01*
X0104200Y0102656D01*
X0104267Y0102712D01*
X0104338Y0102766D01*
X0104410Y0102816D01*
X0104485Y0102863D01*
X0104562Y0102907D01*
X0104641Y0102947D01*
X0104721Y0102984D01*
X0104803Y0103016D01*
X0104887Y0103046D01*
X0104971Y0103071D01*
X0105057Y0103093D01*
X0105143Y0103110D01*
X0105231Y0103124D01*
X0105319Y0103134D01*
X0105407Y0103140D01*
X0105495Y0103142D01*
X0105583Y0103140D01*
X0105671Y0103134D01*
X0105759Y0103124D01*
X0105847Y0103110D01*
X0105933Y0103093D01*
X0106019Y0103071D01*
X0106103Y0103046D01*
X0106187Y0103016D01*
X0106269Y0102984D01*
X0106349Y0102947D01*
X0106428Y0102907D01*
X0106505Y0102863D01*
X0106580Y0102816D01*
X0106652Y0102766D01*
X0106723Y0102712D01*
X0106790Y0102656D01*
X0106856Y0102596D01*
X0106918Y0102534D01*
X0106978Y0102468D01*
X0107034Y0102401D01*
X0107088Y0102330D01*
X0107138Y0102258D01*
X0107185Y0102183D01*
X0107229Y0102106D01*
X0107269Y0102027D01*
X0107306Y0101947D01*
X0107338Y0101865D01*
X0107368Y0101781D01*
X0107393Y0101697D01*
X0107415Y0101611D01*
X0107432Y0101525D01*
X0107446Y0101437D01*
X0107456Y0101349D01*
X0107462Y0101261D01*
X0107464Y0101173D01*
X0107462Y0101085D01*
X0107456Y0100997D01*
X0107446Y0100909D01*
X0107432Y0100821D01*
X0107415Y0100735D01*
X0107393Y0100649D01*
X0107368Y0100565D01*
X0107338Y0100481D01*
X0107306Y0100399D01*
X0107269Y0100319D01*
X0107229Y0100240D01*
X0107185Y0100163D01*
X0107138Y0100088D01*
X0107088Y0100016D01*
X0107034Y0099945D01*
X0106978Y0099878D01*
X0106918Y0099812D01*
X0106856Y0099750D01*
X0106790Y0099690D01*
X0106723Y0099634D01*
X0106652Y0099580D01*
X0106580Y0099530D01*
X0106505Y0099483D01*
X0106428Y0099439D01*
X0106349Y0099399D01*
X0106269Y0099362D01*
X0106187Y0099330D01*
X0106103Y0099300D01*
X0106019Y0099275D01*
X0105933Y0099253D01*
X0105847Y0099236D01*
X0105759Y0099222D01*
X0105671Y0099212D01*
X0105583Y0099206D01*
X0105495Y0099204D01*
X0105407Y0099206D01*
X0105319Y0099212D01*
X0105231Y0099222D01*
X0105143Y0099236D01*
X0105057Y0099253D01*
X0104971Y0099275D01*
X0104887Y0099300D01*
X0104803Y0099330D01*
X0104721Y0099362D01*
X0104641Y0099399D01*
X0104562Y0099439D01*
X0104485Y0099483D01*
X0104410Y0099530D01*
X0104338Y0099580D01*
X0104267Y0099634D01*
X0104200Y0099690D01*
X0104134Y0099750D01*
X0104072Y0099812D01*
X0104012Y0099878D01*
X0103956Y0099945D01*
X0103902Y0100016D01*
X0103852Y0100088D01*
X0103805Y0100163D01*
X0103761Y0100240D01*
X0103721Y0100319D01*
X0103684Y0100399D01*
X0103652Y0100481D01*
X0103622Y0100565D01*
X0103597Y0100649D01*
X0103575Y0100735D01*
X0103558Y0100821D01*
X0103544Y0100909D01*
X0103534Y0100997D01*
X0103528Y0101085D01*
X0103526Y0101173D01*
X0093683Y0101173D02*
X0093685Y0101261D01*
X0093691Y0101349D01*
X0093701Y0101437D01*
X0093715Y0101525D01*
X0093732Y0101611D01*
X0093754Y0101697D01*
X0093779Y0101781D01*
X0093809Y0101865D01*
X0093841Y0101947D01*
X0093878Y0102027D01*
X0093918Y0102106D01*
X0093962Y0102183D01*
X0094009Y0102258D01*
X0094059Y0102330D01*
X0094113Y0102401D01*
X0094169Y0102468D01*
X0094229Y0102534D01*
X0094291Y0102596D01*
X0094357Y0102656D01*
X0094424Y0102712D01*
X0094495Y0102766D01*
X0094567Y0102816D01*
X0094642Y0102863D01*
X0094719Y0102907D01*
X0094798Y0102947D01*
X0094878Y0102984D01*
X0094960Y0103016D01*
X0095044Y0103046D01*
X0095128Y0103071D01*
X0095214Y0103093D01*
X0095300Y0103110D01*
X0095388Y0103124D01*
X0095476Y0103134D01*
X0095564Y0103140D01*
X0095652Y0103142D01*
X0095740Y0103140D01*
X0095828Y0103134D01*
X0095916Y0103124D01*
X0096004Y0103110D01*
X0096090Y0103093D01*
X0096176Y0103071D01*
X0096260Y0103046D01*
X0096344Y0103016D01*
X0096426Y0102984D01*
X0096506Y0102947D01*
X0096585Y0102907D01*
X0096662Y0102863D01*
X0096737Y0102816D01*
X0096809Y0102766D01*
X0096880Y0102712D01*
X0096947Y0102656D01*
X0097013Y0102596D01*
X0097075Y0102534D01*
X0097135Y0102468D01*
X0097191Y0102401D01*
X0097245Y0102330D01*
X0097295Y0102258D01*
X0097342Y0102183D01*
X0097386Y0102106D01*
X0097426Y0102027D01*
X0097463Y0101947D01*
X0097495Y0101865D01*
X0097525Y0101781D01*
X0097550Y0101697D01*
X0097572Y0101611D01*
X0097589Y0101525D01*
X0097603Y0101437D01*
X0097613Y0101349D01*
X0097619Y0101261D01*
X0097621Y0101173D01*
X0097619Y0101085D01*
X0097613Y0100997D01*
X0097603Y0100909D01*
X0097589Y0100821D01*
X0097572Y0100735D01*
X0097550Y0100649D01*
X0097525Y0100565D01*
X0097495Y0100481D01*
X0097463Y0100399D01*
X0097426Y0100319D01*
X0097386Y0100240D01*
X0097342Y0100163D01*
X0097295Y0100088D01*
X0097245Y0100016D01*
X0097191Y0099945D01*
X0097135Y0099878D01*
X0097075Y0099812D01*
X0097013Y0099750D01*
X0096947Y0099690D01*
X0096880Y0099634D01*
X0096809Y0099580D01*
X0096737Y0099530D01*
X0096662Y0099483D01*
X0096585Y0099439D01*
X0096506Y0099399D01*
X0096426Y0099362D01*
X0096344Y0099330D01*
X0096260Y0099300D01*
X0096176Y0099275D01*
X0096090Y0099253D01*
X0096004Y0099236D01*
X0095916Y0099222D01*
X0095828Y0099212D01*
X0095740Y0099206D01*
X0095652Y0099204D01*
X0095564Y0099206D01*
X0095476Y0099212D01*
X0095388Y0099222D01*
X0095300Y0099236D01*
X0095214Y0099253D01*
X0095128Y0099275D01*
X0095044Y0099300D01*
X0094960Y0099330D01*
X0094878Y0099362D01*
X0094798Y0099399D01*
X0094719Y0099439D01*
X0094642Y0099483D01*
X0094567Y0099530D01*
X0094495Y0099580D01*
X0094424Y0099634D01*
X0094357Y0099690D01*
X0094291Y0099750D01*
X0094229Y0099812D01*
X0094169Y0099878D01*
X0094113Y0099945D01*
X0094059Y0100016D01*
X0094009Y0100088D01*
X0093962Y0100163D01*
X0093918Y0100240D01*
X0093878Y0100319D01*
X0093841Y0100399D01*
X0093809Y0100481D01*
X0093779Y0100565D01*
X0093754Y0100649D01*
X0093732Y0100735D01*
X0093715Y0100821D01*
X0093701Y0100909D01*
X0093691Y0100997D01*
X0093685Y0101085D01*
X0093683Y0101173D01*
X0064156Y0101173D02*
X0064158Y0101261D01*
X0064164Y0101349D01*
X0064174Y0101437D01*
X0064188Y0101525D01*
X0064205Y0101611D01*
X0064227Y0101697D01*
X0064252Y0101781D01*
X0064282Y0101865D01*
X0064314Y0101947D01*
X0064351Y0102027D01*
X0064391Y0102106D01*
X0064435Y0102183D01*
X0064482Y0102258D01*
X0064532Y0102330D01*
X0064586Y0102401D01*
X0064642Y0102468D01*
X0064702Y0102534D01*
X0064764Y0102596D01*
X0064830Y0102656D01*
X0064897Y0102712D01*
X0064968Y0102766D01*
X0065040Y0102816D01*
X0065115Y0102863D01*
X0065192Y0102907D01*
X0065271Y0102947D01*
X0065351Y0102984D01*
X0065433Y0103016D01*
X0065517Y0103046D01*
X0065601Y0103071D01*
X0065687Y0103093D01*
X0065773Y0103110D01*
X0065861Y0103124D01*
X0065949Y0103134D01*
X0066037Y0103140D01*
X0066125Y0103142D01*
X0066213Y0103140D01*
X0066301Y0103134D01*
X0066389Y0103124D01*
X0066477Y0103110D01*
X0066563Y0103093D01*
X0066649Y0103071D01*
X0066733Y0103046D01*
X0066817Y0103016D01*
X0066899Y0102984D01*
X0066979Y0102947D01*
X0067058Y0102907D01*
X0067135Y0102863D01*
X0067210Y0102816D01*
X0067282Y0102766D01*
X0067353Y0102712D01*
X0067420Y0102656D01*
X0067486Y0102596D01*
X0067548Y0102534D01*
X0067608Y0102468D01*
X0067664Y0102401D01*
X0067718Y0102330D01*
X0067768Y0102258D01*
X0067815Y0102183D01*
X0067859Y0102106D01*
X0067899Y0102027D01*
X0067936Y0101947D01*
X0067968Y0101865D01*
X0067998Y0101781D01*
X0068023Y0101697D01*
X0068045Y0101611D01*
X0068062Y0101525D01*
X0068076Y0101437D01*
X0068086Y0101349D01*
X0068092Y0101261D01*
X0068094Y0101173D01*
X0068092Y0101085D01*
X0068086Y0100997D01*
X0068076Y0100909D01*
X0068062Y0100821D01*
X0068045Y0100735D01*
X0068023Y0100649D01*
X0067998Y0100565D01*
X0067968Y0100481D01*
X0067936Y0100399D01*
X0067899Y0100319D01*
X0067859Y0100240D01*
X0067815Y0100163D01*
X0067768Y0100088D01*
X0067718Y0100016D01*
X0067664Y0099945D01*
X0067608Y0099878D01*
X0067548Y0099812D01*
X0067486Y0099750D01*
X0067420Y0099690D01*
X0067353Y0099634D01*
X0067282Y0099580D01*
X0067210Y0099530D01*
X0067135Y0099483D01*
X0067058Y0099439D01*
X0066979Y0099399D01*
X0066899Y0099362D01*
X0066817Y0099330D01*
X0066733Y0099300D01*
X0066649Y0099275D01*
X0066563Y0099253D01*
X0066477Y0099236D01*
X0066389Y0099222D01*
X0066301Y0099212D01*
X0066213Y0099206D01*
X0066125Y0099204D01*
X0066037Y0099206D01*
X0065949Y0099212D01*
X0065861Y0099222D01*
X0065773Y0099236D01*
X0065687Y0099253D01*
X0065601Y0099275D01*
X0065517Y0099300D01*
X0065433Y0099330D01*
X0065351Y0099362D01*
X0065271Y0099399D01*
X0065192Y0099439D01*
X0065115Y0099483D01*
X0065040Y0099530D01*
X0064968Y0099580D01*
X0064897Y0099634D01*
X0064830Y0099690D01*
X0064764Y0099750D01*
X0064702Y0099812D01*
X0064642Y0099878D01*
X0064586Y0099945D01*
X0064532Y0100016D01*
X0064482Y0100088D01*
X0064435Y0100163D01*
X0064391Y0100240D01*
X0064351Y0100319D01*
X0064314Y0100399D01*
X0064282Y0100481D01*
X0064252Y0100565D01*
X0064227Y0100649D01*
X0064205Y0100735D01*
X0064188Y0100821D01*
X0064174Y0100909D01*
X0064164Y0100997D01*
X0064158Y0101085D01*
X0064156Y0101173D01*
M02*
